<?xml version="1.0" encoding="UTF-8"?>
<svg width="22px" height="22px" viewBox="0 0 22 22" version="1.1" xmlns="http://www.w3.org/2000/svg" xmlns:xlink="http://www.w3.org/1999/xlink">
    <!-- Generator: Sketch 52.5 (67469) - http://www.bohemiancoding.com/sketch -->
    <title> Icons / Rich Text / B</title>
    <desc>Created with Sketch.</desc>
    <defs>
        <path d="M15.4186047,11.6555024 C15.7674419,12.2535885 16,12.8516746 16,13.569378 C16,14.8851675 15.5348837,15.8421053 14.7209302,16.5598086 C13.9069767,17.277512 12.744186,17.6363636 11.1162791,17.6363636 L7.04651163,17.6363636 L6,17.6363636 L6,4 L10.6511628,4 C12.2790698,4 13.4418605,4.35885167 14.372093,4.9569378 C15.1860465,5.55502392 15.6511628,6.51196172 15.6511628,7.70813397 C15.6511628,8.3062201 15.5348837,8.90430622 15.1860465,9.38277512 C14.8372093,9.86124402 14.372093,10.2200957 13.7906977,10.5789474 C14.4883721,10.8181818 15.0697674,11.1770335 15.4186047,11.6555024 Z M8.90697674,6.3923445 L8.90697674,9.74162679 L10.7674419,9.74162679 C11.4651163,9.74162679 12.0465116,9.62200957 12.3953488,9.38277512 C12.744186,9.14354067 12.8604651,8.66507177 12.8604651,8.18660287 C12.8604651,7.58851675 12.744186,7.11004785 12.3953488,6.8708134 C12.0465116,6.63157895 11.4651163,6.51196172 10.7674419,6.51196172 L8.90697674,6.51196172 L8.90697674,6.3923445 Z M12.627907,14.7655502 C12.9767442,14.4066986 13.0930233,14.0478469 13.0930233,13.569378 C13.0930233,12.3732057 12.5116279,11.7751196 11.2325581,11.7751196 L8.90697674,11.7751196 L8.90697674,15.2440191 L11.1162791,15.2440191 C11.8139535,15.2440191 12.2790698,15.1244019 12.627907,14.7655502 Z" id="path-1"></path>
    </defs>
    <g id="-Icons-/-Rich-Text-/-B" stroke="none" stroke-width="1" fill="none" fill-rule="evenodd">
        <mask id="mask-2" fill="white">
            <use xlink:href="#path-1"></use>
        </mask>
        <use id="Bold" fill="#B5C0CD" xlink:href="#path-1"></use>
    </g>
</svg>