<?xml version="1.0" encoding="UTF-8"?>
<svg width="22px" height="22px" viewBox="0 0 22 22" version="1.1" xmlns="http://www.w3.org/2000/svg" xmlns:xlink="http://www.w3.org/1999/xlink">
    <!-- Generator: Sketch 52.5 (67469) - http://www.bohemiancoding.com/sketch -->
    <title> Icons / Rich Text / Full</title>
    <desc>Created with Sketch.</desc>
    <defs>
        <path d="M4,18 L18,18 L18,16.4444444 L4,16.4444444 L4,18 L4,18 Z M4,14.8888889 L18,14.8888889 L18,13.3333333 L4,13.3333333 L4,14.8888889 L4,14.8888889 Z M4,11.7777778 L18,11.7777778 L18,10.2222222 L4,10.2222222 L4,11.7777778 L4,11.7777778 Z M4,8.66666667 L18,8.66666667 L18,7.11111111 L4,7.11111111 L4,8.66666667 L4,8.66666667 Z M4,4 L4,5.55555556 L18,5.55555556 L18,4 L4,4 L4,4 Z" id="path-1"></path>
    </defs>
    <g id="-Icons-/-Rich-Text-/-Full" stroke="none" stroke-width="1" fill="none" fill-rule="evenodd">
        <mask id="mask-2" fill="white">
            <use xlink:href="#path-1"></use>
        </mask>
        <use id="Shape" fill="#B5C0CD" xlink:href="#path-1"></use>
    </g>
</svg>