<?xml version="1.0" encoding="UTF-8"?>
<svg width="22px" height="22px" viewBox="0 0 22 22" version="1.1" xmlns="http://www.w3.org/2000/svg" xmlns:xlink="http://www.w3.org/1999/xlink">
    <!-- Generator: Sketch 52.5 (67469) - http://www.bohemiancoding.com/sketch -->
    <title> Icons / Rich Text / List</title>
    <desc>Created with Sketch.</desc>
    <defs>
        <path d="M5.13513514,9.54054054 C4.50702703,9.54054054 4,10.0475676 4,10.6756757 C4,11.3037838 4.50702703,11.8108108 5.13513514,11.8108108 C5.76324324,11.8108108 6.27027027,11.3037838 6.27027027,10.6756757 C6.27027027,10.0475676 5.76324324,9.54054054 5.13513514,9.54054054 L5.13513514,9.54054054 Z M5.13513514,5 C4.50702703,5 4,5.50702703 4,6.13513514 C4,6.76324324 4.50702703,7.27027027 5.13513514,7.27027027 C5.76324324,7.27027027 6.27027027,6.76324324 6.27027027,6.13513514 C6.27027027,5.50702703 5.76324324,5 5.13513514,5 L5.13513514,5 Z M5.13513514,14.2097297 C4.57513514,14.2097297 4.12864865,14.6637838 4.12864865,15.2162162 C4.12864865,15.7686486 4.5827027,16.2227027 5.13513514,16.2227027 C5.68756757,16.2227027 6.14162162,15.7686486 6.14162162,15.2162162 C6.14162162,14.6637838 5.69513514,14.2097297 5.13513514,14.2097297 L5.13513514,14.2097297 Z M7.40540541,15.972973 L18,15.972973 L18,14.4594595 L7.40540541,14.4594595 L7.40540541,15.972973 L7.40540541,15.972973 Z M7.40540541,11.4324324 L18,11.4324324 L18,9.91891892 L7.40540541,9.91891892 L7.40540541,11.4324324 L7.40540541,11.4324324 Z M7.40540541,5.37837838 L7.40540541,6.89189189 L18,6.89189189 L18,5.37837838 L7.40540541,5.37837838 L7.40540541,5.37837838 Z" id="path-1"></path>
    </defs>
    <g id="-Icons-/-Rich-Text-/-List" stroke="none" stroke-width="1" fill="none" fill-rule="evenodd">
        <mask id="mask-2" fill="white">
            <use xlink:href="#path-1"></use>
        </mask>
        <use id="Shape" fill="#B5C0CD" xlink:href="#path-1"></use>
    </g>
</svg>