<?xml version="1.0" encoding="UTF-8"?>
<svg width="22px" height="22px" viewBox="0 0 22 22" version="1.1" xmlns="http://www.w3.org/2000/svg" xmlns:xlink="http://www.w3.org/1999/xlink">
    <!-- Generator: Sketch 52.5 (67469) - http://www.bohemiancoding.com/sketch -->
    <title> Icons / Rich Text / Numbered List</title>
    <desc>Created with Sketch.</desc>
    <defs>
        <path d="M4,14.5789474 L5.47368421,14.5789474 L5.47368421,14.9473684 L4.73684211,14.9473684 L4.73684211,15.6842105 L5.47368421,15.6842105 L5.47368421,16.0526316 L4,16.0526316 L4,16.7894737 L6.21052632,16.7894737 L6.21052632,13.8421053 L4,13.8421053 L4,14.5789474 L4,14.5789474 Z M4.73684211,7.94736842 L5.47368421,7.94736842 L5.47368421,5 L4,5 L4,5.73684211 L4.73684211,5.73684211 L4.73684211,7.94736842 L4.73684211,7.94736842 Z M4,10.1578947 L5.32631579,10.1578947 L4,11.7052632 L4,12.3684211 L6.21052632,12.3684211 L6.21052632,11.6315789 L4.88421053,11.6315789 L6.21052632,10.0842105 L6.21052632,9.42105263 L4,9.42105263 L4,10.1578947 L4,10.1578947 Z M7.68421053,5.73684211 L7.68421053,7.21052632 L18,7.21052632 L18,5.73684211 L7.68421053,5.73684211 L7.68421053,5.73684211 Z M7.68421053,16.0526316 L18,16.0526316 L18,14.5789474 L7.68421053,14.5789474 L7.68421053,16.0526316 L7.68421053,16.0526316 Z M7.68421053,11.6315789 L18,11.6315789 L18,10.1578947 L7.68421053,10.1578947 L7.68421053,11.6315789 L7.68421053,11.6315789 Z" id="path-1"></path>
    </defs>
    <g id="-Icons-/-Rich-Text-/-Numbered-List" stroke="none" stroke-width="1" fill="none" fill-rule="evenodd">
        <mask id="mask-2" fill="white">
            <use xlink:href="#path-1"></use>
        </mask>
        <use id="Shape" fill="#B5C0CD" xlink:href="#path-1"></use>
    </g>
</svg>