<?xml version="1.0" encoding="UTF-8"?>
<svg width="22px" height="22px" viewBox="0 0 22 22" version="1.1" xmlns="http://www.w3.org/2000/svg" xmlns:xlink="http://www.w3.org/1999/xlink">
    <!-- Generator: Sketch 52.5 (67469) - http://www.bohemiancoding.com/sketch -->
    <title> Icons / Basic / Alarm</title>
    <desc>Created with Sketch.</desc>
    <g id="-Icons-/-Basic-/-Alarm" stroke="none" stroke-width="1" fill="none" fill-rule="evenodd">
        <g id="Icon-2" transform="translate(3.000000, 4.000000)" fill="#475F7B">
            <path d="M7.95973193,13.2373646 C10.8756004,13.2373646 13.2392211,10.8709386 13.2392211,7.95126354 C13.2392211,5.03158845 10.8756004,2.66516245 7.95973193,2.66516245 C5.04386343,2.66516245 2.68024276,5.03158845 2.68024276,7.95126354 C2.68024276,10.8709386 5.04386343,13.2373646 7.95973193,13.2373646 Z M7.95973193,15 C4.07190727,15 0.920413035,11.8438628 0.920413035,7.95126354 C0.920413035,4.05866426 4.07190727,0.902527076 7.95973193,0.902527076 C11.8475566,0.902527076 14.9990508,4.05866426 14.9990508,7.95126354 C14.9990508,11.8438628 11.8475566,15 7.95973193,15 Z M15.7425145,3.78226534 C15.3992004,4.12612816 14.8414301,4.12612816 14.498116,3.78226534 L12.222855,1.504287 C11.8795409,1.15952166 11.8795409,0.601759928 12.222855,0.257897112 C12.5661691,-0.085965704 13.1239394,-0.085965704 13.4672534,0.257897112 L15.7425145,2.53587545 C16.0858285,2.87973827 16.0858285,3.43840253 15.7425145,3.78226534 Z M3.77714499,0.257897112 C4.12045906,0.601759928 4.12045906,1.15952166 3.77714499,1.504287 L1.50188397,3.78226534 C1.15856991,4.12612816 0.600799609,4.12612816 0.257485547,3.78226534 C-0.0858285155,3.43840253 -0.0858285155,2.87973827 0.257485547,2.53587545 L2.53274657,0.257897112 C2.87606063,-0.085965704 3.43383093,-0.085965704 3.77714499,0.257897112 Z M7.65323439,5.11913357 C7.65323439,4.78429603 7.38263296,4.51263538 7.04852302,4.51263538 C6.71349268,4.51263538 6.44289125,4.78429603 6.44289125,5.11913357 L6.44289125,8.47743682 L9.03569477,10.9981949 C9.27224092,11.2355596 9.65605315,11.2355596 9.89167889,10.9981949 C10.128225,10.7617329 10.128225,10.3781588 9.89167889,10.1416968 L7.65323439,7.91064982 L7.65323439,5.11913357 Z" id="Icon"></path>
        </g>
    </g>
</svg>