<?xml version="1.0" encoding="UTF-8"?>
<svg width="22px" height="22px" viewBox="0 0 22 22" version="1.1" xmlns="http://www.w3.org/2000/svg" xmlns:xlink="http://www.w3.org/1999/xlink">
    <!-- Generator: Sketch 52.5 (67469) - http://www.bohemiancoding.com/sketch -->
    <title> Icons / Basic / Attach</title>
    <desc>Created with Sketch.</desc>
    <g id="-Icons-/-Basic-/-Attach" stroke="none" stroke-width="1" fill="none" fill-rule="evenodd">
        <path d="M15.0341701,5.10227419 C14.6351701,5.09727419 14.1721701,5.25927419 13.7141701,5.80427419 C11.1781701,8.82527419 9.94917015,10.3302742 8.71617015,11.9152742 C8.57317015,12.0982742 8.56517015,12.2302742 8.57617015,12.3142742 C8.58917015,12.4232742 8.65117015,12.5582742 8.77217015,12.6762742 C8.89517015,12.7952742 9.02917015,12.8462742 9.12317015,12.8512742 C9.19117015,12.8552742 9.26817015,12.8402742 9.36417015,12.7302742 L12.6621701,8.87427419 C13.0271701,8.44227419 13.6521701,8.40527419 14.0581701,8.79227419 C14.4641701,9.18027419 14.4991701,9.84427419 14.1351701,10.2772742 L10.8071701,14.1672742 C9.73317015,15.3882742 8.25317015,15.0162742 7.44217015,14.2312742 C7.06917015,13.8532742 6.71017015,13.1802742 6.61717015,12.5902742 C6.53117015,11.8992742 6.71617015,11.1872742 7.19417015,10.5742742 C8.44217015,8.97027419 9.69517015,7.43627419 12.2401701,4.40427419 C13.0531701,3.43627419 14.0501701,2.98727419 15.0581701,3.00027419 C16.0381701,3.01327419 16.9361701,3.46027419 17.6111701,4.09927419 C18.9241701,5.34227419 19.6981701,7.71327419 18.1151701,9.61327419 C17.1961701,10.7132742 16.4981701,11.5042742 15.7681701,12.3292742 C14.7111701,13.5252742 13.5881701,14.7952742 11.6361701,17.1892742 C10.6151701,18.4402742 9.33417015,19.0082742 8.05417015,19.0002742 C6.79817015,18.9922742 5.61117015,18.4342742 4.71317015,17.5712742 C3.86317015,16.7372742 3.17217015,15.4172742 3.02517015,14.1172742 C2.88917015,12.7182742 3.29917015,11.2402742 4.38017015,9.90027419 C6.21717015,7.62127419 7.31717015,6.25227419 7.95717015,5.45327419 C8.27717015,5.05327419 8.48217015,4.79727419 8.60717015,4.64027419 L8.73817015,4.47527419 L8.77417015,4.42927419 C9.12517015,3.98427419 9.74817015,3.92527419 10.1671701,4.29827419 C10.5851701,4.67127419 10.6401701,5.33427419 10.2891701,5.77927419 L10.2791701,5.79227419 L10.2491701,5.83027419 L10.1151701,5.99927419 C9.98917015,6.15727419 9.78317015,6.41627419 9.46217015,6.81627419 C8.82017015,7.61727419 7.71917015,8.98827419 5.88017015,11.2682742 C5.12317015,12.2072742 4.91517015,13.1212742 4.99117015,13.9012742 C5.05517015,14.7792742 5.40617015,15.4232742 6.03717015,16.0112742 C6.62017015,16.5712742 7.35217015,16.8932742 8.06517015,16.8982742 C8.75317015,16.9022742 9.49017015,16.6132742 10.1441701,15.8112742 C12.1541701,13.3512742 13.3041701,12.0502742 14.3521701,10.8652742 C15.0781701,10.0432742 15.7561701,9.27627419 16.6371701,8.21827419 C17.2541701,7.47727419 17.0991701,6.42927419 16.2981701,5.67027419 C15.9161701,5.30827419 15.4611701,5.10827419 15.0341701,5.10227419 Z" id="Icon" fill="#475F7B"></path>
    </g>
</svg>