<?xml version="1.0" encoding="UTF-8"?>
<svg width="22px" height="22px" viewBox="0 0 22 22" version="1.1" xmlns="http://www.w3.org/2000/svg" xmlns:xlink="http://www.w3.org/1999/xlink">
    <!-- Generator: Sketch 52.5 (67469) - http://www.bohemiancoding.com/sketch -->
    <title> Icons / Basic / Bike</title>
    <desc>Created with Sketch.</desc>
    <g id="-Icons-/-Basic-/-Bike" stroke="none" stroke-width="1" fill="none" fill-rule="evenodd">
        <path d="M12.7090949,17.7892291 C13.8965396,17.4916077 15.0211933,16.8783338 15.9497662,15.9497609 C17.0227728,14.8767543 17.6745558,13.5420475 17.9052636,12.1511185 C16.7177693,12.4487893 15.5932146,13.0619642 14.664571,13.9906079 C13.5915644,15.0636144 12.9397532,16.3983496 12.7090949,17.7892291 Z M10.6640707,17.9919567 C10.8724551,16.0141077 11.7344893,14.0922616 13.250357,12.5763939 C14.5803687,11.2463822 16.223049,10.4197034 17.9417644,10.0962514 C17.7502799,8.61684214 17.0862286,7.1867253 15.9497662,6.05026293 C14.7752969,4.87579356 13.2873245,4.20592989 11.7552075,4.04063656 C11.5063129,5.93731673 10.6532873,7.76995423 9.19604586,9.22719569 C7.74755838,10.6756832 5.92815086,11.5273016 4.04357635,11.7818672 C4.21372044,13.3045656 4.88261538,14.7821081 6.05026824,15.9497609 C7.33161683,17.2311095 8.9861765,17.9118414 10.6640707,17.9919567 Z M6.05026824,6.05026293 C5.00382059,7.09671058 4.35797027,8.3920104 4.11263949,9.7457314 C5.45676505,9.4968863 6.74212294,8.85269061 7.78183186,7.81298169 C8.82829365,6.7665199 9.47411569,5.47116351 9.71937575,4.11749909 C8.37525727,4.36635125 7.08991352,5.01061765 6.05026824,6.05026293 Z M4.63605424,17.3639749 C1.12132233,13.849243 1.12130818,8.15079499 4.63605424,4.63604893 C8.15078615,1.12131702 13.8492483,1.12131702 17.3639802,4.63604893 C20.8787263,8.15079499 20.8787121,13.849243 17.3639802,17.3639749 C13.8492342,20.878721 8.15080029,20.878721 4.63605424,17.3639749 Z" id="Shape" fill="#475F7B"></path>
    </g>
</svg>