<?xml version="1.0" encoding="UTF-8"?>
<svg width="22px" height="22px" viewBox="0 0 22 22" version="1.1" xmlns="http://www.w3.org/2000/svg" xmlns:xlink="http://www.w3.org/1999/xlink">
    <!-- Generator: Sketch 52.5 (67469) - http://www.bohemiancoding.com/sketch -->
    <title> Icons / Basic / Branches</title>
    <desc>Created with Sketch.</desc>
    <g id="-Icons-/-Basic-/-Branches" stroke="none" stroke-width="1" fill="none" fill-rule="evenodd">
        <path d="M6,6 C6.55228,6 7,5.55231 7,5 C7,4.44769 6.55228,4 6,4 C5.44772,4 5,4.44769 5,5 C5,5.55231 5.44772,6 6,6 Z M7,7.82928 L7,11.44342 C7.31277,11.33289 7.64935,11.27271 8,11.27271 L14,11.27271 C14.5523,11.27271 15,10.82501 15,10.27271 L15,9.82928 C13.8348,9.41748 13,8.30621 13,7 C13,5.34314 14.3431,4 16,4 C17.6569,4 19,5.34314 19,7 C19,8.30621 18.1652,9.41748 17,9.82928 L17,10.27271 C17,11.92957 15.6569,13.2727 14,13.2727 L8,13.2727 C7.48157,13.2727 7.05527,13.6673 7.00497,14.1725 C8.16757,14.5857 9,15.6956 9,17 C9,18.6569 7.65686,20 6,20 C4.34314,20 3,18.6569 3,17 C3,15.6938 3.834808,14.5826 5,14.1707 L5,7.82928 C3.834808,7.41748 3,6.30621 3,5 C3,3.34314 4.34314,2 6,2 C7.65686,2 9,3.34314 9,5 C9,6.30621 8.16519,7.41748 7,7.82928 Z M6,16 C5.44772,16 5,16.4477 5,17 C5,17.5523 5.44772,18 6,18 C6.55228,18 7,17.5523 7,17 C7,16.4477 6.55228,16 6,16 Z M17,7 C17,6.44769 16.5523,6 16,6 C15.4477,6 15,6.44769 15,7 C15,7.55231 15.4477,8 16,8 C16.5523,8 17,7.55231 17,7 Z" id="path0_fill" fill="#475F7B"></path>
    </g>
</svg>