<?xml version="1.0" encoding="UTF-8"?>
<svg width="22px" height="22px" viewBox="0 0 22 22" version="1.1" xmlns="http://www.w3.org/2000/svg" xmlns:xlink="http://www.w3.org/1999/xlink">
    <!-- Generator: Sketch 52.5 (67469) - http://www.bohemiancoding.com/sketch -->
    <title> Icons / Basic / Card</title>
    <desc>Created with Sketch.</desc>
    <g id="-Icons-/-Basic-/-Card" stroke="none" stroke-width="1" fill="none" fill-rule="evenodd">
        <path d="M4,4 C2.895,4 2,4.895 2,6 L2,16 C2,17.105 2.895,18 4,18 L18,18 C19.105,18 20,17.105 20,16 L20,6 C20,4.895 19.105,4 18,4 L4,4 Z M4.5,6 C4.224,6 4,6.224 4,6.5 L4,8 L18,8 L18,6.5 C18,6.224 17.776,6 17.5,6 L4.5,6 Z M4,15.5 L4,11 L18,11 L18,15.5 C18,15.776 17.776,16 17.5,16 L4.5,16 C4.224,16 4,15.776 4,15.5 Z" id="Icon" fill="#475F7B"></path>
    </g>
</svg>