<?xml version="1.0" encoding="UTF-8"?>
<svg width="22px" height="22px" viewBox="0 0 22 22" version="1.1" xmlns="http://www.w3.org/2000/svg" xmlns:xlink="http://www.w3.org/1999/xlink">
    <!-- Generator: Sketch 52.5 (67469) - http://www.bohemiancoding.com/sketch -->
    <title> Icons / Basic / Check</title>
    <desc>Created with Sketch.</desc>
    <g id="-Icons-/-Basic-/-Check" stroke="none" stroke-width="1" fill="none" fill-rule="evenodd">
        <path d="M18.98625,5.70725 C19.37725,5.31725 19.37725,4.68325 18.98625,4.29325 C18.59625,3.90225 17.96325,3.90225 17.57225,4.29325 L7.01825,14.84725 L3.70725,11.53725 C3.31725,11.14625 2.68325,11.14625 2.29325,11.53725 C1.90225,11.92825 1.90225,12.56125 2.29325,12.95125 L6.26125,16.92025 C6.27725,16.93725 6.29225,16.95425 6.30925,16.97025 C6.50425,17.16625 6.76025,17.26325 7.01625,17.26325 C7.06425,17.26325 7.11225,17.26025 7.16025,17.25325 C7.36725,17.22425 7.56725,17.13025 7.72625,16.97025 C7.74325,16.95425 7.75925,16.93725 7.77425,16.91925 L18.98625,5.70725 Z" id="Icon" fill="#475F7B"></path>
    </g>
</svg>