<?xml version="1.0" encoding="UTF-8"?>
<svg width="22px" height="22px" viewBox="0 0 22 22" version="1.1" xmlns="http://www.w3.org/2000/svg" xmlns:xlink="http://www.w3.org/1999/xlink">
    <!-- Generator: Sketch 52.5 (67469) - http://www.bohemiancoding.com/sketch -->
    <title> Icons / Basic / Clipboard</title>
    <desc>Created with Sketch.</desc>
    <g id="-Icons-/-Basic-/-Clipboard" stroke="none" stroke-width="1" fill="none" fill-rule="evenodd">
        <path d="M14.02,4 C14.02,4.351 13.96,4.687 13.85,5 L17,5 C18.105,5 19,5.895 19,7 L19,19 C19,20.105 18.105,21 17,21 L5,21 C3.895,21 3,20.105 3,19 L3,7 C3,5.895 3.895,5 5,5 L8.191,5 C8.08,4.687 8.02,4.351 8.02,4 C8.02,2.343 9.363,1 11.02,1 C12.677,1 14.02,2.343 14.02,4 Z M5,7.5 C5,7.224 5.224,7 5.5,7 L7.02,7 L7.02,8.5 C7.02,8.776 7.244,9 7.52,9 L14.52,9 C14.796,9 15.02,8.776 15.02,8.5 L15.02,7 L16.5,7 C16.777,7 17,7.224 17,7.5 L17,18.5 C17,18.776 16.777,19 16.5,19 L5.5,19 C5.224,19 5,18.776 5,18.5 L5,7.5 Z M11.02,5 C10.468,5 10.02,4.552 10.02,4 C10.02,3.448 10.468,3 11.02,3 C11.573,3 12.02,3.448 12.02,4 C12.02,4.552 11.573,5 11.02,5 Z" id="Icon" fill="#475F7B"></path>
    </g>
</svg>