<?xml version="1.0" encoding="UTF-8"?>
<svg width="22px" height="22px" viewBox="0 0 22 22" version="1.1" xmlns="http://www.w3.org/2000/svg" xmlns:xlink="http://www.w3.org/1999/xlink">
    <!-- Generator: Sketch 52.5 (67469) - http://www.bohemiancoding.com/sketch -->
    <title> Icons / Basic / Close</title>
    <desc>Created with Sketch.</desc>
    <g id="-Icons-/-Basic-/-Close" stroke="none" stroke-width="1" fill="none" fill-rule="evenodd">
        <path d="M16.97025,5.70725 C17.36125,5.31725 17.36125,4.68325 16.97025,4.29325 C16.58025,3.90225 15.94725,3.90225 15.55625,4.29325 L10.63225,9.21725 L5.70725,4.29325 C5.31725,3.90225 4.68325,3.90225 4.29325,4.29325 C3.90225,4.68325 3.90225,5.31725 4.29325,5.70725 L9.21725,10.63225 L4.29325,15.55625 C3.90225,15.94725 3.90225,16.58025 4.29325,16.97025 C4.68325,17.36125 5.31725,17.36125 5.70725,16.97025 L10.63225,12.04625 L15.55625,16.97025 C15.94725,17.36125 16.58025,17.36125 16.97025,16.97025 C17.36125,16.58025 17.36125,15.94725 16.97025,15.55625 L12.04625,10.63225 L16.97025,5.70725 Z" id="Icon" fill="#475F7B"></path>
    </g>
</svg>