<?xml version="1.0" encoding="UTF-8"?>
<svg width="22px" height="22px" viewBox="0 0 22 22" version="1.1" xmlns="http://www.w3.org/2000/svg" xmlns:xlink="http://www.w3.org/1999/xlink">
    <!-- Generator: Sketch 52.5 (67469) - http://www.bohemiancoding.com/sketch -->
    <title> Icons / Basic / Code</title>
    <desc>Created with Sketch.</desc>
    <g id="-Icons-/-Basic-/-Code" stroke="none" stroke-width="1" fill="none" fill-rule="evenodd">
        <path d="M6.02020621,6.64932759 L2,11.494382 L6.02020621,16.3394365 C6.31751865,16.6977502 6.84900864,16.7472014 7.20732233,16.449889 C7.20750334,16.4497388 7.20768429,16.4495885 7.20786517,16.4494382 L7.20786517,16.4494382 C7.56629281,16.1515243 7.61550429,15.6195185 7.31780598,15.2609118 L4.19101124,11.494382 L7.31780598,7.72785226 C7.61550429,7.36924556 7.56629281,6.83723972 7.20786517,6.53932584 L7.20786517,6.53932584 C6.84980045,6.24171361 6.31826925,6.29072003 6.02065702,6.64878475 C6.02050667,6.64896563 6.0203564,6.64914658 6.02020621,6.64932759 Z M14.682194,7.72785226 L17.8089888,11.494382 L14.682194,15.2609118 C14.3844957,15.6195185 14.4337072,16.1515243 14.7921348,16.4494382 L14.7921348,16.4494382 C15.1501996,16.7470504 15.6817307,16.698044 15.979343,16.3399793 C15.9794933,16.3397984 15.9796436,16.3396175 15.9797938,16.3394365 L20,11.494382 L15.9797938,6.64932759 C15.6824814,6.29101389 15.1509914,6.2415626 14.7926777,6.53887504 C14.7924967,6.53902523 14.7923157,6.5391755 14.7921348,6.53932584 L14.7921348,6.53932584 C14.4337072,6.83723972 14.3844957,7.36924556 14.682194,7.72785226 Z" id="Mask" fill="#475F7B"></path>
    </g>
</svg>