<?xml version="1.0" encoding="UTF-8"?>
<svg width="22px" height="22px" viewBox="0 0 22 22" version="1.1" xmlns="http://www.w3.org/2000/svg" xmlns:xlink="http://www.w3.org/1999/xlink">
    <!-- Generator: Sketch 52.5 (67469) - http://www.bohemiancoding.com/sketch -->
    <title> Icons / Basic / Comment</title>
    <desc>Created with Sketch.</desc>
    <defs>
        <path d="M2,5 C2,3.895 2.895,3 4,3 L18,3 C19.105,3 20,3.895 20,5 L20,14 C20,15.105 19.105,16 18,16 L10.217,16 L8.003,17.992 C7.038,18.861 5.5,18.176 5.5,16.877 L5.5,16 L4,16 C2.895,16 2,15.105 2,14 L2,5 Z M4.5,5 L17.5,5 C17.776,5 18,5.224 18,5.5 L18,13.5 C18,13.776 17.776,14 17.5,14 L4.5,14 C4.224,14 4,13.776 4,13.5 L4,5.5 C4,5.224 4.224,5 4.5,5 Z M6,8 C6,8.552 6.448,9 7,9 L15,9 C15.552,9 16,8.552 16,8 C16,7.448 15.552,7 15,7 L7,7 C6.448,7 6,7.448 6,8 Z M7,10 C6.448,10 6,10.448 6,11 C6,11.552 6.448,12 7,12 L12.143,12 C12.695,12 13.143,11.552 13.143,11 C13.143,10.448 12.695,10 12.143,10 L7,10 Z" id="path-1"></path>
    </defs>
    <g id="-Icons-/-Basic-/-Comment" stroke="none" stroke-width="1" fill="none" fill-rule="evenodd">
        <mask id="mask-2" fill="white">
            <use xlink:href="#path-1"></use>
        </mask>
        <use id="Mask" fill="#475F7B" xlink:href="#path-1"></use>
    </g>
</svg>