<?xml version="1.0" encoding="UTF-8"?>
<svg width="22px" height="22px" viewBox="0 0 22 22" version="1.1" xmlns="http://www.w3.org/2000/svg" xmlns:xlink="http://www.w3.org/1999/xlink">
    <!-- Generator: Sketch 52.5 (67469) - http://www.bohemiancoding.com/sketch -->
    <title> Icons / Basic / Dots</title>
    <desc>Created with Sketch.</desc>
    <defs>
        <path d="M5,9 C3.9,9 3,9.9 3,11 C3,12.1 3.9,13 5,13 C6.1,13 7,12.1 7,11 C7,9.9 6.1,9 5,9 L5,9 Z M17,9 C15.9,9 15,9.9 15,11 C15,12.1 15.9,13 17,13 C18.1,13 19,12.1 19,11 C19,9.9 18.1,9 17,9 L17,9 Z M11,9 C9.9,9 9,9.9 9,11 C9,12.1 9.9,13 11,13 C12.1,13 13,12.1 13,11 C13,9.9 12.1,9 11,9 L11,9 Z" id="path-1"></path>
    </defs>
    <g id="-Icons-/-Basic-/-Dots" stroke="none" stroke-width="1" fill="none" fill-rule="evenodd">
        <mask id="mask-2" fill="white">
            <use xlink:href="#path-1"></use>
        </mask>
        <use id="Shape" fill="#B3C0CE" xlink:href="#path-1"></use>
    </g>
</svg>