<?xml version="1.0" encoding="UTF-8"?>
<svg width="22px" height="22px" viewBox="0 0 22 22" version="1.1" xmlns="http://www.w3.org/2000/svg" xmlns:xlink="http://www.w3.org/1999/xlink">
    <!-- Generator: Sketch 52.5 (67469) - http://www.bohemiancoding.com/sketch -->
    <title> Icons / Basic / Flag</title>
    <desc>Created with Sketch.</desc>
    <g id="-Icons-/-Basic-/-Flag" stroke="none" stroke-width="1" fill="none" fill-rule="evenodd">
        <path d="M5,3 C4.448,3 4,3.448 4,4 L4,18 C4,18.5523 4.448,19 5,19 C5.552,19 6,18.5523 6,18 L6,13 L10,13 L10,14 C10,14.5523 10.448,15 11,15 L17,15 C17.552,15 18,14.5523 18,14 L18,7 C18,6.448 17.552,6 17,6 L12,6 L12,5 C12,4.448 11.552,4 11,4 L6,4 C6,3.448 5.552,3 5,3 Z M6,11 L10,11 L10,6 L6,6 L6,11 Z M12,13 L16,13 L16,8 L12,8 L12,13 Z" id="Icon" fill="#EB597B"></path>
    </g>
</svg>