<?xml version="1.0" encoding="UTF-8"?>
<svg width="22px" height="22px" viewBox="0 0 22 22" version="1.1" xmlns="http://www.w3.org/2000/svg" xmlns:xlink="http://www.w3.org/1999/xlink">
    <!-- Generator: Sketch 52.5 (67469) - http://www.bohemiancoding.com/sketch -->
    <title> Icons / Basic / Gift</title>
    <desc>Created with Sketch.</desc>
    <defs>
        <path d="M18,5 C18,5.351 17.94,5.687 17.829,6 L18,6 C19.105,6 20,6.895 20,8 L20,18 C20,19.105 19.105,20 18,20 L4,20 C2.895,20 2,19.105 2,18 L2,8 C2,6.895 2.895,6 4,6 L8.171,6 C8.06,5.687 8,5.351 8,5 C8,3.343 9.343,2 11,2 C11.768,2 12.469,2.289 13,2.764 C13.531,2.289 14.232,2 15,2 C16.657,2 18,3.343 18,5 Z M12,5 C12,5.552 11.552,6 11,6 C10.448,6 10,5.552 10,5 C10,4.448 10.448,4 11,4 C11.552,4 12,4.448 12,5 Z M8.293,9.793 L10.086,8 L4.5,8 C4.224,8 4,8.224 4,8.5 L4,12 L18,12 L18,8.5 C18,8.224 17.776,8 17.5,8 L15.414,8 L17.207,9.793 L15.793,11.207 L12.75,8.164 L9.707,11.207 L8.293,9.793 Z M18,14 L4,14 L4,17.5 C4,17.776 4.224,18 4.5,18 L17.5,18 C17.776,18 18,17.776 18,17.5 L18,14 Z M14,5 C14,5.552 14.448,6 15,6 C15.552,6 16,5.552 16,5 C16,4.448 15.552,4 15,4 C14.448,4 14,4.448 14,5 Z" id="path-1"></path>
    </defs>
    <g id="-Icons-/-Basic-/-Gift" stroke="none" stroke-width="1" fill="none" fill-rule="evenodd">
        <mask id="mask-2" fill="white">
            <use xlink:href="#path-1"></use>
        </mask>
        <use id="Icon" fill="#475F7B" xlink:href="#path-1"></use>
    </g>
</svg>