<?xml version="1.0" encoding="UTF-8"?>
<svg width="22px" height="22px" viewBox="0 0 22 22" version="1.1" xmlns="http://www.w3.org/2000/svg" xmlns:xlink="http://www.w3.org/1999/xlink">
    <!-- Generator: Sketch 52.5 (67469) - http://www.bohemiancoding.com/sketch -->
    <title> Icons / Basic / Grid 2</title>
    <desc>Created with Sketch.</desc>
    <defs>
        <path d="M5,4 L17,4 C17.5522847,4 18,4.44771525 18,5 L18,6 C18,6.55228475 17.5522847,7 17,7 L5,7 C4.44771525,7 4,6.55228475 4,6 L4,5 C4,4.44771525 4.44771525,4 5,4 Z M5,10 L17,10 C17.5522847,10 18,10.4477153 18,11 L18,12 C18,12.5522847 17.5522847,13 17,13 L5,13 C4.44771525,13 4,12.5522847 4,12 L4,11 C4,10.4477153 4.44771525,10 5,10 Z M5,16 L17,16 C17.5522847,16 18,16.4477153 18,17 L18,18 C18,18.5522847 17.5522847,19 17,19 L5,19 C4.44771525,19 4,18.5522847 4,18 L4,17 C4,16.4477153 4.44771525,16 5,16 Z" id="path-1"></path>
    </defs>
    <g id="-Icons-/-Basic-/-Grid-2" stroke="none" stroke-width="1" fill="none" fill-rule="evenodd">
        <mask id="mask-2" fill="white">
            <use xlink:href="#path-1"></use>
        </mask>
        <use id="Combined-Shape" fill="#475F7B" xlink:href="#path-1"></use>
    </g>
</svg>