<?xml version="1.0" encoding="UTF-8"?>
<svg width="22px" height="22px" viewBox="0 0 22 22" version="1.1" xmlns="http://www.w3.org/2000/svg" xmlns:xlink="http://www.w3.org/1999/xlink">
    <!-- Generator: Sketch 52.5 (67469) - http://www.bohemiancoding.com/sketch -->
    <title> Icons / Basic / Grid 1</title>
    <desc>Created with Sketch.</desc>
    <defs>
        <path d="M5,4 L9,4 C9.55228475,4 10,4.44771525 10,5 L10,9 C10,9.55228475 9.55228475,10 9,10 L5,10 C4.44771525,10 4,9.55228475 4,9 L4,5 C4,4.44771525 4.44771525,4 5,4 Z M13,4 L17,4 C17.5522847,4 18,4.44771525 18,5 L18,9 C18,9.55228475 17.5522847,10 17,10 L13,10 C12.4477153,10 12,9.55228475 12,9 L12,5 C12,4.44771525 12.4477153,4 13,4 Z M13,12 L17,12 C17.5522847,12 18,12.4477153 18,13 L18,17 C18,17.5522847 17.5522847,18 17,18 L13,18 C12.4477153,18 12,17.5522847 12,17 L12,13 C12,12.4477153 12.4477153,12 13,12 Z M5,12 L9,12 C9.55228475,12 10,12.4477153 10,13 L10,17 C10,17.5522847 9.55228475,18 9,18 L5,18 C4.44771525,18 4,17.5522847 4,17 L4,13 C4,12.4477153 4.44771525,12 5,12 Z" id="path-1"></path>
    </defs>
    <g id="-Icons-/-Basic-/-Grid-1" stroke="none" stroke-width="1" fill="none" fill-rule="evenodd">
        <mask id="mask-2" fill="white">
            <use xlink:href="#path-1"></use>
        </mask>
        <use id="Combined-Shape" fill="#475F7B" xlink:href="#path-1"></use>
    </g>
</svg>