<?xml version="1.0" encoding="UTF-8"?>
<svg width="22px" height="22px" viewBox="0 0 22 22" version="1.1" xmlns="http://www.w3.org/2000/svg" xmlns:xlink="http://www.w3.org/1999/xlink">
    <!-- Generator: Sketch 52.5 (67469) - http://www.bohemiancoding.com/sketch -->
    <title> Icons / Basic / Heart</title>
    <desc>Created with Sketch.</desc>
    <defs>
        <path d="M16.2792743,10.2403892 C16.6119935,9.60574431 16.7647059,9.03719728 16.7647059,8.46260975 C16.7647059,7.05537028 15.7394447,6 14.4294118,6 C13.6830743,6 12.9215663,6.36843229 12.4233825,6.970636 L10.8823529,8.83342977 L9.34132341,6.970636 C8.84313959,6.36843229 8.08163153,6 7.33529412,6 C6.02526119,6 5,7.05537028 5,8.46260975 C5,9.03468685 5.15136668,9.60069913 5.48102157,10.2321896 C6.20678425,11.6224685 7.34064145,12.8373236 10.878247,16.152471 C14.4087974,12.8510763 15.5508022,11.6299126 16.2792743,10.2403892 Z M9.53006376,4.57708624 L10.8823529,5.6957917 L12.2346421,4.57708624 C12.9006968,4.20883291 13.6562881,4 14.4294118,4 C16.8571765,4 18.7647059,5.96354829 18.7647059,8.46260975 C18.7647059,11.5296397 16.0847059,14.0287012 12.0252941,17.8178625 L11.563536,18.2505665 C11.1799894,18.6099799 10.5836606,18.611111 10.1987535,18.253155 L9.73941176,17.8259764 C5.68,14.0287012 3,11.5296397 3,8.46260975 C3,5.96354829 4.90752941,4 7.33529412,4 C8.10841779,4 8.86400906,4.20883291 9.53006376,4.57708624 Z" id="path-1"></path>
    </defs>
    <g id="-Icons-/-Basic-/-Heart" stroke="none" stroke-width="1" fill="none" fill-rule="evenodd">
        <mask id="mask-2" fill="white">
            <use xlink:href="#path-1"></use>
        </mask>
        <use id="Shape" fill="#475F7B" xlink:href="#path-1"></use>
    </g>
</svg>