<?xml version="1.0" encoding="UTF-8"?>
<svg width="22px" height="22px" viewBox="0 0 22 22" version="1.1" xmlns="http://www.w3.org/2000/svg" xmlns:xlink="http://www.w3.org/1999/xlink">
    <!-- Generator: Sketch 52.5 (67469) - http://www.bohemiancoding.com/sketch -->
    <title> Icons / Basic / Home</title>
    <desc>Created with Sketch.</desc>
    <defs>
        <path d="M3.00027947,19.9998863 L19,19.9998863 L19.098993,10.7078863 L19.3979878,10.7078863 C20.3261716,10.7078863 20.7535641,9.55288632 20.0491764,8.94888632 L18.0990105,7.27488632 L18.0990105,5.70788632 C18.0990105,5.15488632 17.6514183,4.70788632 17.0990279,4.70788632 C16.9987297,4.70788632 16.9017314,4.72188632 16.810333,4.74988632 C16.4420394,4.86088632 16.1633443,5.17788632 16.1088452,5.56788632 L12.2322129,2.24088632 C11.8706192,1.93088632 11.3405285,1.91888632 10.9651351,2.21188632 L2.38608491,8.91988632 C1.636898,9.50488632 2.05109076,10.7078863 3.00187416,10.7078863 L3.09927245,10.7078863 L3.00027947,19.9998863 Z M16.924631,8.90288632 C17.035329,8.99788632 17.0990279,9.13688632 17.0990279,9.28188632 L17.0990279,17.4998863 C17.0990279,17.7759863 16.8751318,17.9998863 16.5990367,17.9998863 L15,17.9998863 L15,13.9998863 C15,13.4475863 14.5523078,12.9998863 14.0000175,12.9998863 L12.0000524,12.9998863 C11.447862,12.9998863 11.0000699,13.4475863 11.0000699,13.9998863 L11.0991327,17.9998863 L5.5,17.9998863 C5.22390482,17.9998863 5.00000873,17.7759863 5.00000873,17.4998863 L5,9.49988632 C5,9.34588632 5.07079876,9.20088632 5.19199665,9.10588632 L11.2289305,4.54488632 C11.4165272,4.39788632 11.6816225,4.40388632 11.8624194,4.55888632 L16.924631,8.90288632 Z" id="path-1"></path>
    </defs>
    <g id="-Icons-/-Basic-/-Home" stroke="none" stroke-width="1" fill="none" fill-rule="evenodd">
        <mask id="mask-2" fill="white">
            <use xlink:href="#path-1"></use>
        </mask>
        <use id="Icon" fill="#475F7B" xlink:href="#path-1"></use>
    </g>
</svg>