<?xml version="1.0" encoding="UTF-8"?>
<svg width="22px" height="22px" viewBox="0 0 22 22" version="1.1" xmlns="http://www.w3.org/2000/svg" xmlns:xlink="http://www.w3.org/1999/xlink">
    <!-- Generator: Sketch 52.5 (67469) - http://www.bohemiancoding.com/sketch -->
    <title> Icons / Basic / Important</title>
    <desc>Created with Sketch.</desc>
    <defs>
        <path d="M9,17 L9,17 C9,15.8954305 9.8954305,15 11,15 L11,15 C12.1045695,15 13,15.8954305 13,17 L13,17 C13,18.1045695 12.1045695,19 11,19 L11,19 C9.8954305,19 9,18.1045695 9,17 Z M9,11 L9,4 C9,2.8954305 9.8954305,2 11,2 L11,2 C12.1045695,2 13,2.8954305 13,4 L13,11 C13,12.1045695 12.1045695,13 11,13 L11,13 C9.8954305,13 9,12.1045695 9,11 Z" id="path-1"></path>
    </defs>
    <g id="-Icons-/-Basic-/-Important" stroke="none" stroke-width="1" fill="none" fill-rule="evenodd">
        <mask id="mask-2" fill="white">
            <use xlink:href="#path-1"></use>
        </mask>
        <use id="Shape" fill="#475F7B" xlink:href="#path-1"></use>
    </g>
</svg>