<?xml version="1.0" encoding="UTF-8"?>
<svg width="22px" height="22px" viewBox="0 0 22 22" version="1.1" xmlns="http://www.w3.org/2000/svg" xmlns:xlink="http://www.w3.org/1999/xlink">
    <!-- Generator: Sketch 52.5 (67469) - http://www.bohemiancoding.com/sketch -->
    <title> Icons / Basic / Important Round</title>
    <desc>Created with Sketch.</desc>
    <defs>
        <path d="M11,20 C6.0294,20 2,15.971 2,11 C2,6.029 6.0294,2 11,2 C15.9706,2 20,6.029 20,11 C20,15.971 15.9706,20 11,20 Z M11,18 C14.866,18 18,14.866 18,11 C18,7.134 14.866,4 11,4 C7.134,4 4,7.134 4,11 C4,14.866 7.134,18 11,18 Z M12,15 C12,15.552 11.5523,16 11,16 C10.4477,16 10,15.552 10,15 L10,10 C10,9.448 10.4477,9 11,9 C11.5523,9 12,9.448 12,10 L12,15 Z M10,7 C10,6.448 10.4477,6 11,6 C11.5523,6 12,6.448 12,7 C12,7.552 11.5523,8 11,8 C10.4477,8 10,7.552 10,7 Z" id="path-1"></path>
    </defs>
    <g id="-Icons-/-Basic-/-Important-Round" stroke="none" stroke-width="1" fill="none" fill-rule="evenodd">
        <mask id="mask-2" fill="white">
            <use xlink:href="#path-1"></use>
        </mask>
        <use id="Icon" fill="#475F7B" xlink:href="#path-1"></use>
    </g>
</svg>