<?xml version="1.0" encoding="UTF-8"?>
<svg width="22px" height="22px" viewBox="0 0 22 22" version="1.1" xmlns="http://www.w3.org/2000/svg" xmlns:xlink="http://www.w3.org/1999/xlink">
    <!-- Generator: Sketch 52.5 (67469) - http://www.bohemiancoding.com/sketch -->
    <title> Icons / Basic / Link</title>
    <desc>Created with Sketch.</desc>
    <defs>
        <path d="M7.8284,4.29325 C7.4379,3.90225 6.8047,3.90225 6.4142,4.29325 L4.2929,6.41425 C3.9024,6.80425 3.9023,7.43825 4.2929,7.82825 L5.7071,9.24225 C6.0976,9.63325 6.0976,10.26625 5.7071,10.65625 C5.3166,11.04725 4.6834,11.04725 4.2929,10.65625 L2.8787,9.24225 C1.7071,8.07125 1.7071,6.17125 2.8787,5.00025 L5,2.87825 C6.1715,1.70725 8.071,1.70725 9.2426,2.87825 L13.4853,7.12125 C14.6569,8.29325 14.6568,10.19225 13.4853,11.36425 L12.071,12.77825 C11.6805,13.16825 11.0474,13.16825 10.6568,12.77825 C10.2663,12.38725 10.2663,11.75425 10.6568,11.36425 L12.071,9.94925 C12.4616,9.55925 12.4616,8.92625 12.071,8.53525 L7.8284,4.29325 Z M10.7071,9.2925 C11.0976,9.6835 11.0976,10.3165 10.7071,10.7075 L9.2929,12.1215 C8.9024,12.5115 8.9023,13.1455 9.2929,13.5355 L13.5355,17.7785 C13.926,18.1685 14.5592,18.1685 14.9497,17.7785 L17.071,15.6565 C17.4616,15.2665 17.4616,14.6335 17.071,14.2425 L15.6568,12.8285 C15.2663,12.4375 15.2663,11.8045 15.6568,11.4145 C16.0474,11.0235 16.6805,11.0235 17.071,11.4145 L18.4853,12.8285 C19.6569,14.0005 19.6568,15.8995 18.4853,17.0715 L16.3639,19.1925 C15.1924,20.3635 13.2929,20.3645 12.1213,19.1925 L7.8787,14.9495 C6.7071,13.7785 6.7071,11.8785 7.8787,10.7075 L9.2929,9.2925 C9.6834,8.9025 10.3166,8.9025 10.7071,9.2925 Z" id="path-1"></path>
    </defs>
    <g id="-Icons-/-Basic-/-Link" stroke="none" stroke-width="1" fill="none" fill-rule="evenodd">
        <mask id="mask-2" fill="white">
            <use xlink:href="#path-1"></use>
        </mask>
        <use id="Combined-Shape" fill="#475F7B" xlink:href="#path-1"></use>
    </g>
</svg>