<?xml version="1.0" encoding="UTF-8"?>
<svg width="22px" height="22px" viewBox="0 0 22 22" version="1.1" xmlns="http://www.w3.org/2000/svg" xmlns:xlink="http://www.w3.org/1999/xlink">
    <!-- Generator: Sketch 52.5 (67469) - http://www.bohemiancoding.com/sketch -->
    <title> Icons / Basic / List</title>
    <desc>Created with Sketch.</desc>
    <defs>
        <path d="M17.5,3 L4.5,3 C4.2295695,3 4,3.2295695 4,3.5 L4,18.5 C4,18.7704305 4.2295695,19 4.5,19 L17.5,19 C17.7704305,19 18,18.7704305 18,18.5 L18,3.5 C18,3.2295695 17.7704305,3 17.5,3 Z M17.5,1 C18.875,1 20,2.125 20,3.5 L20,18.5 C20,19.875 18.875,21 17.5,21 L4.5,21 C3.125,21 2,19.875 2,18.5 L2,3.5 C2,2.125 3.125,1 4.5,1 L17.5,1 Z M6,10 C6,10.5522847 6.44771525,11 7,11 L14,11 C14.5522847,11 15,10.5522847 15,10 C15,9.44771525 14.5522847,9 14,9 L7,9 C6.44771525,9 6,9.44771525 6,10 Z M6,14 C6,14.5522847 6.44771525,15 7,15 L10,15 C10.5522847,15 11,14.5522847 11,14 C11,13.4477153 10.5522847,13 10,13 L7,13 C6.44771525,13 6,13.4477153 6,14 Z M6,6 C6,6.55228475 6.44771525,7 7,7 L15,7 C15.5522847,7 16,6.55228475 16,6 C16,5.44771525 15.5522847,5 15,5 L7,5 C6.44771525,5 6,5.44771525 6,6 Z" id="path-1"></path>
    </defs>
    <g id="-Icons-/-Basic-/-List" stroke="none" stroke-width="1" fill="none" fill-rule="evenodd">
        <mask id="mask-2" fill="white">
            <use xlink:href="#path-1"></use>
        </mask>
        <use id="Shape" fill="#475F7B" xlink:href="#path-1"></use>
    </g>
</svg>