<?xml version="1.0" encoding="UTF-8"?>
<svg width="22px" height="22px" viewBox="0 0 22 22" version="1.1" xmlns="http://www.w3.org/2000/svg" xmlns:xlink="http://www.w3.org/1999/xlink">
    <!-- Generator: Sketch 52.5 (67469) - http://www.bohemiancoding.com/sketch -->
    <title> Icons / Basic / Mail</title>
    <desc>Created with Sketch.</desc>
    <defs>
        <path d="M4,4 L18,4 C19.1046,4 20,4.895431 20,6 L20,16 C20,17.1046 19.1046,18 18,18 L4,18 C2.895431,18 2,17.1046 2,16 L2,6 C2,4.895431 2.895431,4 4,4 Z M18,6.5 C18,6.22386 17.7761,6 17.5,6 L4.5,6 C4.22386,6 4,6.22386 4,6.5 L4,15.5 C4,15.77614 4.22386,16 4.5,16 L17.5,16 C17.7761,16 18,15.77614 18,15.5 L18,6.5 Z M11,13.14608 L9.73874,12.26091 L7.63325,13.46562 C7.14403,13.74554 6.52053,13.51982 6.32386,12.9916 C6.16788,12.57263 6.33814,12.10232 6.72617,11.8803 L8.07636,11.10775 L6.61517,10.09412 C6.25872,9.84685 6.12954,9.38038 6.30803,8.98498 C6.53931,8.4726 7.17868,8.29556 7.64057,8.61599 L11,10.94653 L14.3594,8.61599 C14.8213,8.29555 15.4607,8.4726 15.692,8.98498 C15.8705,9.38038 15.7413,9.84684 15.3848,10.09411 L13.9975,11.0565 L15.3188,11.87553 C15.6942,12.10819 15.8477,12.57721 15.6825,12.98677 C15.4717,13.5092 14.841,13.71558 14.3622,13.41879 L12.3712,12.18464 L11,13.14608 Z" id="path-1"></path>
    </defs>
    <g id="-Icons-/-Basic-/-Mail" stroke="none" stroke-width="1" fill="none" fill-rule="evenodd">
        <mask id="mask-2" fill="white">
            <use xlink:href="#path-1"></use>
        </mask>
        <use id="Icon" fill="#475F7B" xlink:href="#path-1"></use>
    </g>
</svg>