<?xml version="1.0" encoding="UTF-8"?>
<svg width="22px" height="22px" viewBox="0 0 22 22" version="1.1" xmlns="http://www.w3.org/2000/svg" xmlns:xlink="http://www.w3.org/1999/xlink">
    <!-- Generator: Sketch 52.5 (67469) - http://www.bohemiancoding.com/sketch -->
    <title> Icons / Basic / Man</title>
    <desc>Created with Sketch.</desc>
    <defs>
        <path d="M8.6938,12.008 C5.5224,12.167 3,14.789 3,18 C3,19.105 3.8954,20 5,20 L17,20 C18.1046,20 19,19.105 19,18 C19,14.789 16.4776,12.167 13.3062,12.008 C13.2048,12.003 13.1027,12 13,12 L9,12 C8.8973,12 8.7952,12.003 8.6938,12.008 Z M8.3542,10 C9.0593,10.622 9.9856,11 11,11 C12.0144,11 12.9407,10.622 13.6458,10 C14.4762,9.267 15,8.195 15,7 C15,4.791 13.2091,3 11,3 C8.7909,3 7,4.791 7,7 C7,8.195 7.5238,9.267 8.3542,10 Z M16.5,18 C16.7761,18 17,17.776 17,17.5 L17,17 C17,14.791 15.2091,14 13,14 L9,14 C6.7909,14 5,14.791 5,17 L5,17.5 C5,17.776 5.2239,18 5.5,18 L16.5,18 Z M11,9 C12.1046,9 13,8.105 13,7 C13,5.895 12.1046,5 11,5 C9.8954,5 9,5.895 9,7 C9,8.105 9.8954,9 11,9 Z" id="path-1"></path>
    </defs>
    <g id="-Icons-/-Basic-/-Man" stroke="none" stroke-width="1" fill="none" fill-rule="evenodd">
        <mask id="mask-2" fill="white">
            <use xlink:href="#path-1"></use>
        </mask>
        <use id="Icon" fill="#475F7B" xlink:href="#path-1"></use>
    </g>
</svg>