<?xml version="1.0" encoding="UTF-8"?>
<svg width="22px" height="22px" viewBox="0 0 22 22" version="1.1" xmlns="http://www.w3.org/2000/svg" xmlns:xlink="http://www.w3.org/1999/xlink">
    <!-- Generator: Sketch 52.5 (67469) - http://www.bohemiancoding.com/sketch -->
    <title> Icons / Basic / Map</title>
    <desc>Created with Sketch.</desc>
    <defs>
        <path d="M10.7042385,19.045544 C10.703621,19.0457823 10.7059687,19.0446153 10.709662,19.0426151 L10.7042385,19.045544 Z M11.5244781,18.3218822 C12.1675367,17.6229887 12.8926599,16.6008379 13.5708225,15.4279656 C15.0335807,12.898147 16,10.1724233 16,8.51428571 C16,5.24848742 13.8442747,3 11,3 C8.09346054,3 6,5.1505847 6,8.51428571 C6,10.2439227 6.96035272,12.9672198 8.42577365,15.4819314 C9.09992096,16.6387908 9.82269361,17.6454779 10.4651657,18.3331486 C10.6599992,18.5416889 10.839025,18.7115469 10.9931906,18.8382919 C11.1481479,18.7087733 11.328299,18.5350949 11.5244781,18.3218822 Z M11,21 C8.86071777,21 4,13.1323242 4,8.51428571 C4,3.89624721 7.13400675,1 11,1 C14.8659932,1 18,4.05579311 18,8.51428571 C18,12.9727783 13.1392822,21 11,21 Z M11,11 C12.6568542,11 14,9.65685425 14,8 C14,6.34314575 12.6568542,5 11,5 C9.34314575,5 8,6.34314575 8,8 C8,9.65685425 9.34314575,11 11,11 Z M11,9 C10.4477153,9 10,8.55228475 10,8 C10,7.44771525 10.4477153,7 11,7 C11.5522847,7 12,7.44771525 12,8 C12,8.55228475 11.5522847,9 11,9 Z" id="path-1"></path>
    </defs>
    <g id="-Icons-/-Basic-/-Map" stroke="none" stroke-width="1" fill="none" fill-rule="evenodd">
        <mask id="mask-2" fill="white">
            <use xlink:href="#path-1"></use>
        </mask>
        <use id="Combined-Shape" fill="#475F7B" xlink:href="#path-1"></use>
    </g>
</svg>