<?xml version="1.0" encoding="UTF-8"?>
<svg width="16px" height="16px" viewBox="0 0 16 16" version="1.1" xmlns="http://www.w3.org/2000/svg" xmlns:xlink="http://www.w3.org/1999/xlink">
    <!-- Generator: Sketch 52.5 (67469) - http://www.bohemiancoding.com/sketch -->
    <title> Icons / Basic / Menu</title>
    <desc>Created with Sketch.</desc>
    <defs>
        <path d="M1.71428571,0 L14.2857143,0 C15.2324881,-1.60634016e-16 16,0.708882479 16,1.58333333 C16,2.45778419 15.2324881,3.16666667 14.2857143,3.16666667 L1.71428571,3.16666667 C0.767511857,3.16666667 1.15946357e-16,2.45778419 0,1.58333333 C-1.15946357e-16,0.708882479 0.767511857,1.60634016e-16 1.71428571,0 Z M1.71428571,6 L14.2857143,6 C15.2324881,6 16,6.70888248 16,7.58333333 C16,8.45778419 15.2324881,9.16666667 14.2857143,9.16666667 L1.71428571,9.16666667 C0.767511857,9.16666667 1.15946357e-16,8.45778419 0,7.58333333 C-1.15946357e-16,6.70888248 0.767511857,6 1.71428571,6 Z M1.71428571,12 L14.2857143,12 C15.2324881,12 16,12.7088825 16,13.5833333 C16,14.4577842 15.2324881,15.1666667 14.2857143,15.1666667 L1.71428571,15.1666667 C0.767511857,15.1666667 1.15946357e-16,14.4577842 0,13.5833333 C-1.15946357e-16,12.7088825 0.767511857,12 1.71428571,12 Z" id="path-1"></path>
    </defs>
    <g id="-Icons-/-Basic-/-Menu" stroke="none" stroke-width="1" fill="none" fill-rule="evenodd">
        <mask id="mask-2" fill="white">
            <use xlink:href="#path-1"></use>
        </mask>
        <use id="Burger" fill="#475F7B" xlink:href="#path-1"></use>
    </g>
</svg>