<?xml version="1.0" encoding="UTF-8"?>
<svg width="22px" height="22px" viewBox="0 0 22 22" version="1.1" xmlns="http://www.w3.org/2000/svg" xmlns:xlink="http://www.w3.org/1999/xlink">
    <!-- Generator: Sketch 52.5 (67469) - http://www.bohemiancoding.com/sketch -->
    <title> Icons / Basic / New File</title>
    <desc>Created with Sketch.</desc>
    <defs>
        <path d="M12,2 L12,2.025 L6,2.025 C4.895,2.025 4,2.92 4,4.025 L4,18.0248 C4,19.1294 4.895,20.0248 6,20.0248 L16,20.0248 C17.105,20.0248 18,19.1294 18,18.0248 L18,8.025 L18.025,8.025 L12,2 Z M11,7.025 C11,8.129 11.895,9.025 13,9.025 L16,9.025 L16,17.5248 C16,17.801 15.776,18.0248 15.5,18.0248 L6.5,18.0248 C6.224,18.0248 6,17.801 6,17.5248 L6,4.525 C6,4.249 6.224,4.025 6.5,4.025 L11,4.025 L11,7.025 Z M10,13 L9,13 C8.44771525,13 8,13.4477153 8,14 C8,14.5522847 8.44771525,15 9,15 L10,15 L10,16 C10,16.5522847 10.4477153,17 11,17 C11.5522847,17 12,16.5522847 12,16 L12,15 L13,15 C13.5522847,15 14,14.5522847 14,14 C14,13.4477153 13.5522847,13 13,13 L12,13 L12,12 C12,11.4477153 11.5522847,11 11,11 C10.4477153,11 10,11.4477153 10,12 L10,13 Z" id="path-1"></path>
    </defs>
    <g id="-Icons-/-Basic-/-New-File" stroke="none" stroke-width="1" fill="none" fill-rule="evenodd">
        <mask id="mask-2" fill="white">
            <use xlink:href="#path-1"></use>
        </mask>
        <use id="Icon" fill="#475F7B" xlink:href="#path-1"></use>
    </g>
</svg>