<?xml version="1.0" encoding="UTF-8"?>
<svg width="22px" height="22px" viewBox="0 0 22 22" version="1.1" xmlns="http://www.w3.org/2000/svg" xmlns:xlink="http://www.w3.org/1999/xlink">
    <!-- Generator: Sketch 52.5 (67469) - http://www.bohemiancoding.com/sketch -->
    <title> Icons / Basic / People</title>
    <desc>Created with Sketch.</desc>
    <defs>
        <path d="M6.087,11.311 C4.017,12.007 2.452,13.801 2.083,16 C2.028,16.325 2,16.659 2,17 L2,18 L16,18 L16,17 C16,16.659 15.972,16.325 15.917,16 C15.548,13.801 13.983,12.007 11.913,11.311 C11.312,11.109 10.669,11 10,11 L8,11 C7.331,11 6.688,11.109 6.087,11.311 Z M6.623,9.118 C6.984,9.546 7.459,9.874 8,10.058 C8.314,10.164 8.65,10.222 9,10.222 C9.35,10.222 9.686,10.164 10,10.058 C10.541,9.874 11.016,9.546 11.377,9.118 C11.835,8.576 12.111,7.876 12.111,7.111 C12.111,5.393 10.718,4 9,4 C7.282,4 5.889,5.393 5.889,7.111 C5.889,7.876 6.165,8.576 6.623,9.118 Z M13.874,16 C13.43,14.275 11.864,13 10,13 L8,13 C6.136,13 4.57,14.275 4.126,16 L13.874,16 Z M9,8.222 C8.386,8.222 7.889,7.725 7.889,7.111 C7.889,6.497 8.386,6 9,6 C9.614,6 10.111,6.497 10.111,7.111 C10.111,7.725 9.614,8.222 9,8.222 Z M12.278282,10.222 C11.948282,10.222 11.910282,9.781 12.172282,9.58 C12.912282,9.011 13.389282,8.117 13.389282,7.111 C13.389282,6.105 12.912282,5.211 12.172282,4.642 C11.910282,4.441 11.948282,4 12.278282,4 C13.996282,4 15.389282,5.393 15.389282,7.111 C15.389282,8.829 13.996282,10.222 12.278282,10.222 Z M17.036,18 L17.036,17 C17.036,14.374 15.349,12.142 13,11.329 L13.036,11 C16.009,11 18.477,13.162 18.953,16 C19.008,16.325 19.036,16.659 19.036,17 L19.036,18 L17.036,18 Z" id="path-1"></path>
    </defs>
    <g id="-Icons-/-Basic-/-People" stroke="none" stroke-width="1" fill="none" fill-rule="evenodd">
        <mask id="mask-2" fill="white">
            <use xlink:href="#path-1"></use>
        </mask>
        <use id="Icon" fill="#475F7B" xlink:href="#path-1"></use>
    </g>
</svg>