<?xml version="1.0" encoding="UTF-8"?>
<svg width="22px" height="22px" viewBox="0 0 22 22" version="1.1" xmlns="http://www.w3.org/2000/svg" xmlns:xlink="http://www.w3.org/1999/xlink">
    <!-- Generator: Sketch 52.5 (67469) - http://www.bohemiancoding.com/sketch -->
    <title> Icons / Basic / Play Round</title>
    <desc>Created with Sketch.</desc>
    <g id="-Icons-/-Basic-/-Play-Round" stroke="none" stroke-width="1" fill="none" fill-rule="evenodd">
        <path d="M13.9333333,10.2 L10.6,7.7 C10.1581722,7.36862915 9.53137085,7.4581722 9.2,7.9 C9.07017787,8.07309617 9,8.28362979 9,8.5 L9,13.5 C9,14.0522847 9.44771525,14.5 10,14.5 C10.2163702,14.5 10.4269038,14.4298221 10.6,14.3 L13.9333333,11.8 C14.3751611,11.4686292 14.4647042,10.8418278 14.1333333,10.4 C14.0764791,10.3241943 14.009139,10.2568542 13.9333333,10.2 Z M11,1 C5.48,1 1,5.48 1,11 C1,16.52 5.48,21 11,21 C16.52,21 21,16.52 21,11 C21,5.48 16.52,1 11,1 L11,1 Z M3,11 C3,6.59 6.59,3 11,3 C15.41,3 19,6.59 19,11 C19,15.41 15.41,19 11,19 C6.59,19 3,15.41 3,11 Z" id="Play-Round" fill="#475F7B"></path>
    </g>
</svg>