<?xml version="1.0" encoding="UTF-8"?>
<svg width="22px" height="22px" viewBox="0 0 22 22" version="1.1" xmlns="http://www.w3.org/2000/svg" xmlns:xlink="http://www.w3.org/1999/xlink">
    <!-- Generator: Sketch 52.5 (67469) - http://www.bohemiancoding.com/sketch -->
    <title> Icons / Basic / Quote</title>
    <desc>Created with Sketch.</desc>
    <defs>
        <path d="M11.4736842,8.26315789 C11.4736842,5.9086808 13.382365,4 15.7368421,4 C18.0913192,4 20,5.9086808 20,8.26315789 C20,9.52631579 19.460541,10.878679 18.3816229,12.3202475 L15.3722504,17.3286844 C15.0878027,17.8020848 14.4734455,17.9552613 14.000045,17.6708136 L13.2782199,17.2370973 C12.8048195,16.9526496 12.651643,16.3382924 12.9360907,15.8648919 L14.9821257,12.4597179 C12.9876406,12.1034199 11.4736842,10.3600907 11.4736842,8.26315789 Z M2,8.26315789 C2,5.9086808 3.9086808,4 6.26315789,4 C8.61763499,4 10.5263158,5.9086808 10.5263158,8.26315789 C10.5263158,9.52631579 9.98685675,10.878679 8.90793867,12.3202475 L5.89856619,17.3286844 C5.61411852,17.8020848 4.99976125,17.9552613 4.52636082,17.6708136 L3.80453572,17.2370973 C3.33113529,16.9526496 3.17795882,16.3382924 3.4624065,15.8648919 L5.50844145,12.4597179 C3.51395642,12.1034199 2,10.3600907 2,8.26315789 Z" id="path-1"></path>
    </defs>
    <g id="-Icons-/-Basic-/-Quote" stroke="none" stroke-width="1" fill="none" fill-rule="evenodd">
        <mask id="mask-2" fill="white">
            <use xlink:href="#path-1"></use>
        </mask>
        <use id="Quote" fill="#475F7B" xlink:href="#path-1"></use>
    </g>
</svg>