<?xml version="1.0" encoding="UTF-8"?>
<svg width="22px" height="22px" viewBox="0 0 22 22" version="1.1" xmlns="http://www.w3.org/2000/svg" xmlns:xlink="http://www.w3.org/1999/xlink">
    <!-- Generator: Sketch 52.5 (67469) - http://www.bohemiancoding.com/sketch -->
    <title> Icons / Basic / Refresh</title>
    <desc>Created with Sketch.</desc>
    <defs>
        <path d="M5.37388527,5.15112667 C5.07688527,5.34812667 5.07688527,5.78512667 5.37388527,5.98312667 L10.9718853,10.0481267 C11.3048853,10.2701267 11.7498853,10.0321267 11.7498853,9.63212667 L11.7498853,6.65012667 C14.5868853,7.12612667 16.7498853,9.59412667 16.7498853,12.5671267 C16.7498853,15.8801267 14.0628853,18.5671267 10.7498853,18.5671267 C8.07088527,18.5671267 5.80288527,16.8111267 5.03088527,14.3891267 C4.88288527,13.9231267 4.47488527,13.5671267 3.98588527,13.5671267 L3.94388527,13.5671267 C3.34288527,13.5671267 2.87288527,14.0971267 3.03088527,14.6771267 C3.95688527,18.0711267 7.06188527,20.5671267 10.7498853,20.5671267 C15.1678853,20.5671267 18.7498853,16.9851267 18.7498853,12.5671267 C18.7498853,8.48712667 15.6958853,5.12112667 11.7498853,4.62812667 L11.7498853,1.50112667 C11.7498853,1.10112667 11.3048853,0.863126668 10.9718853,1.08512667 L5.37388527,5.15112667 Z" id="path-1"></path>
    </defs>
    <g id="-Icons-/-Basic-/-Refresh" stroke="none" stroke-width="1" fill="none" fill-rule="evenodd">
        <mask id="mask-2" fill="white">
            <use xlink:href="#path-1"></use>
        </mask>
        <use id="Refresh" fill="#475F7B" xlink:href="#path-1"></use>
    </g>
</svg>