<?xml version="1.0" encoding="UTF-8"?>
<svg width="22px" height="22px" viewBox="0 0 22 22" version="1.1" xmlns="http://www.w3.org/2000/svg" xmlns:xlink="http://www.w3.org/1999/xlink">
    <!-- Generator: Sketch 52.5 (67469) - http://www.bohemiancoding.com/sketch -->
    <title> Icons / Basic / Rocket</title>
    <desc>Created with Sketch.</desc>
    <defs>
        <path d="M9.57404444,2.75036591 C10.2849244,1.74987803 11.7150756,1.74987803 12.4259556,2.75036591 L14.5384889,5.72346142 C15.6655111,7.3354723 16.2441778,9.4782878 16.0903111,11.4700928 L16.0759111,11.640542 C16.6222222,11.7144032 17.2756444,11.972126 17.8327111,12.5237106 C18.5334222,13.2176154 19,14.2938665 19,15.8086283 L19,19.0685841 C19,19.5830051 18.6020444,20 18.1111111,20 C17.6201778,20 17.2222222,19.5830051 17.2222222,19.0685841 L17.2222222,15.8086283 C17.2222222,14.7155185 16.8986667,14.1617918 16.6117333,13.8777099 C16.3799111,13.648209 16.1175111,13.5398853 15.9185778,13.4996482 L15.8892444,13.845576 C15.8845333,13.8986668 15.8744889,13.9742046 15.8653333,14.0267364 L15.4289778,16.447207 L15.2922667,17.2057522 L14.5555556,17.2057522 L12.7777778,17.2057522 L12.7777778,19.0685841 C12.7777778,19.5830051 12.3798222,20 11.8888889,20 L10.1111111,20 C9.62019556,20 9.22222222,19.5830051 9.22222222,19.0685841 L9.22222222,17.2057522 L7.44444444,17.2057522 L6.70773333,17.2057522 L6.57099556,16.447207 L6.13466667,14.0267364 C6.12957333,13.9975831 6.12424889,13.9615373 6.11968889,13.9260504 C6.11601778,13.8974559 6.11285333,13.869234 6.11072889,13.845576 L6.08144889,13.4996482 C5.88252444,13.5398853 5.62006222,13.648209 5.38830222,13.8777099 C5.10134222,14.1617918 4.77777778,14.7155185 4.77777778,15.8086283 L4.77777778,19.0685841 C4.77777778,19.5830051 4.37980444,20 3.88888889,20 C3.39796978,20 3,19.5830051 3,19.0685841 L3,15.8086283 C3,14.2938665 3.46655911,13.2176154 4.16725333,12.5237106 C4.72432889,11.972126 5.37781333,11.7144032 5.92408,11.640542 L5.90965333,11.4700928 C5.75581333,9.4782878 6.33448889,7.3354723 7.46155556,5.72346142 L9.57404444,2.75036591 Z M11,3.86279043 L8.88751111,6.83594461 C7.92914667,8.15893713 7.52580444,9.65252778 7.68048,11.3055303 L7.88154667,13.6809949 L8.18115556,15.3429203 L13.8188444,15.3429203 L14.1184889,13.6809949 L14.3195556,11.3055303 C14.4742222,9.6524719 14.0708444,8.15893713 13.1124444,6.83594461 L11,3.86279043 Z M12.7777778,9.75446194 C12.7777778,10.7832574 11.9818667,11.6172566 11,11.6172566 C10.01816,11.6172566 9.22222222,10.7832574 9.22222222,9.75446194 C9.22222222,8.72566647 10.01816,7.89163007 11,7.89163007 C11.9818667,7.89163007 12.7777778,8.72566647 12.7777778,9.75446194 Z" id="path-1"></path>
    </defs>
    <g id="-Icons-/-Basic-/-Rocket" stroke="none" stroke-width="1" fill="none" fill-rule="evenodd">
        <mask id="mask-2" fill="white">
            <use xlink:href="#path-1"></use>
        </mask>
        <use id="Rocket" fill="#475F7B" xlink:href="#path-1"></use>
    </g>
</svg>