<?xml version="1.0" encoding="UTF-8"?>
<svg width="22px" height="22px" viewBox="0 0 22 22" version="1.1" xmlns="http://www.w3.org/2000/svg" xmlns:xlink="http://www.w3.org/1999/xlink">
    <!-- Generator: Sketch 52.5 (67469) - http://www.bohemiancoding.com/sketch -->
    <title> Icons / Basic / Send</title>
    <desc>Created with Sketch.</desc>
    <defs>
        <path d="M8.29845492,14.1019123 L7.91694524,14.3837996 C7.60530084,14.6136294 7.20437661,14.6895315 6.82866812,14.5955797 L2.95014841,13.618954 C2.464671,13.4960466 2.08604872,13.1020728 2.01304953,12.599554 C1.93662306,12.0820086 2.20171443,11.5871219 2.65571801,11.3433745 L17.9146613,3.15434126 C18.3186047,2.93715562 18.8132278,2.94978711 19.2053224,3.18842002 C19.6313402,3.44789053 19.8674735,3.93404431 19.7844127,4.43168193 L17.8685131,15.982976 C17.8072529,16.3449009 17.586003,16.6551645 17.2697404,16.841284 C16.9759849,17.0126682 16.6241653,17.0617361 16.2949346,16.9785757 L12.9471938,16.135819 L10.6043084,19.4619948 C10.3629539,19.8058855 9.96709239,20 9.55501738,20 C9.44179185,20 9.32823114,19.9855619 9.22275104,19.9570599 C8.68084525,19.8148285 8.28447221,19.3369757 8.28447221,18.7653517 L8.28447221,14.2850997 C8.28447221,14.2233592 8.28920575,14.1621393 8.29845492,14.1019123 Z M14.2566208,9.672616 L10.0739459,14.5013532 L10.0739459,17.1074786 L12.1920535,14.1004163 L12.7880491,14.2504516 L16.1995136,15.1092504 L17.7749111,5.61088083 L14.2566208,9.672616 Z M4.77979186,12.2343332 L7.04336804,12.8043104 L15.8700355,6.28252022 L4.77979186,12.2343332 Z" id="path-1"></path>
    </defs>
    <g id="-Icons-/-Basic-/-Send" stroke="none" stroke-width="1" fill="none" fill-rule="evenodd">
        <mask id="mask-2" fill="white">
            <use xlink:href="#path-1"></use>
        </mask>
        <use id="Plane" fill="#475F7B" xlink:href="#path-1"></use>
    </g>
</svg>