<?xml version="1.0" encoding="UTF-8"?>
<svg width="22px" height="22px" viewBox="0 0 22 22" version="1.1" xmlns="http://www.w3.org/2000/svg" xmlns:xlink="http://www.w3.org/1999/xlink">
    <!-- Generator: Sketch 52.5 (67469) - http://www.bohemiancoding.com/sketch -->
    <title> Icons / Basic / Settings</title>
    <desc>Created with Sketch.</desc>
    <defs>
        <path d="M2.34789291,7.368 L3.45489291,5.55 C4.22889291,4.279 5.73689291,4.223 6.65889291,4.727 L6.83689291,4.825 C7.05889291,4.681 7.28989291,4.547 7.52589291,4.423 L7.52589291,4.389 C7.52589291,3.167 8.49089291,2 9.89289291,2 L12.1068929,2 C13.5088929,2 14.4738929,3.167 14.4738929,4.389 L14.4738929,4.423 C14.7098929,4.547 14.9408929,4.681 15.1628929,4.825 L15.3408929,4.727 C16.2628929,4.223 17.7708929,4.279 18.5448929,5.55 L19.6518929,7.368 C20.4808929,8.731 19.6888929,10.139 18.7338929,10.662 L18.5378929,10.769 C18.5408929,10.847 18.5428929,10.925 18.5438929,11 C18.5428929,11.075 18.5408929,11.153 18.5378929,11.231 L18.7338929,11.338 C19.6888929,11.861 20.4808929,13.269 19.6518929,14.632 L18.5448929,16.45 C17.7708929,17.721 16.2628929,17.778 15.3408929,17.273 L15.1628929,17.175 C14.9408929,17.319 14.7098929,17.453 14.4738929,17.577 L14.4738929,17.611 C14.4738929,18.833 13.5088929,20 12.1068929,20 L9.89289291,20 C8.49089291,20 7.52589291,18.833 7.52589291,17.611 L7.52589291,17.577 C7.28989291,17.453 7.05889291,17.319 6.83689291,17.175 L6.65889291,17.273 C5.73689291,17.778 4.22889291,17.721 3.45489291,16.45 L2.34789291,14.632 C1.51889291,13.269 2.31089291,11.861 3.26589291,11.338 L3.46189291,11.231 C3.45889291,11.153 3.45689291,11.075 3.45589291,11 C3.45689291,10.925 3.45889291,10.847 3.46189291,10.769 L3.26589291,10.662 C2.31089291,10.139 1.51889291,8.731 2.34789291,7.368 Z M7.02189291,7.206 L5.70089291,6.482 C5.50489291,6.375 5.26289291,6.423 5.16089291,6.591 L4.05389291,8.409 C3.95189291,8.577 4.02789291,8.799 4.22389291,8.907 L5.61989291,9.671 C5.51189291,10.096 5.45389291,10.542 5.45389291,11 C5.45389291,11.458 5.51189291,11.904 5.61989291,12.329 L4.22389291,13.093 C4.02789291,13.201 3.95189291,13.423 4.05389291,13.591 L5.16089291,15.409 C5.26289291,15.577 5.50489291,15.625 5.70089291,15.518 L7.02189291,14.794 C7.69989291,15.479 8.55889291,15.989 9.52389291,16.25 L9.52389291,17.611 C9.52389291,17.826 9.68889291,18 9.89289291,18 L12.1068929,18 C12.3108929,18 12.4758929,17.826 12.4758929,17.611 L12.4758929,16.25 C13.4408929,15.989 14.2998929,15.479 14.9778929,14.794 L16.2988929,15.518 C16.4948929,15.625 16.7368929,15.577 16.8388929,15.409 L17.9458929,13.591 C18.0478929,13.423 17.9718929,13.201 17.7758929,13.093 L16.3798929,12.329 C16.4878929,11.904 16.5458929,11.458 16.5458929,11 C16.5458929,10.542 16.4878929,10.096 16.3798929,9.671 L17.7758929,8.907 C17.9718929,8.799 18.0478929,8.577 17.9458929,8.409 L16.8388929,6.591 C16.7368929,6.423 16.4948929,6.375 16.2988929,6.482 L14.9778929,7.206 C14.2998929,6.521 13.4408929,6.011 12.4758929,5.751 L12.4758929,4.389 C12.4758929,4.174 12.3108929,4 12.1068929,4 L9.89289291,4 C9.68889291,4 9.52389291,4.174 9.52389291,4.389 L9.52389291,5.751 C8.55889291,6.011 7.69989291,6.521 7.02189291,7.206 Z M13.992,11 C13.992,12.657 12.651,14 10.996,14 C9.341,14 8,12.657 8,11 C8,9.343 9.341,8 10.996,8 C12.651,8 13.992,9.343 13.992,11 Z M11.995,11 C11.995,11.552 11.548,12 10.996,12 C10.444,12 9.997,11.552 9.997,11 C9.997,10.448 10.444,10 10.996,10 C11.548,10 11.995,10.448 11.995,11 Z" id="path-1"></path>
    </defs>
    <g id="-Icons-/-Basic-/-Settings" stroke="none" stroke-width="1" fill="none" fill-rule="evenodd">
        <mask id="mask-2" fill="white">
            <use xlink:href="#path-1"></use>
        </mask>
        <use id="Gear" fill="#475F7B" xlink:href="#path-1"></use>
    </g>
</svg>