<?xml version="1.0" encoding="UTF-8"?>
<svg width="22px" height="22px" viewBox="0 0 22 22" version="1.1" xmlns="http://www.w3.org/2000/svg" xmlns:xlink="http://www.w3.org/1999/xlink">
    <!-- Generator: Sketch 52.5 (67469) - http://www.bohemiancoding.com/sketch -->
    <title> Icons / Basic / Share</title>
    <desc>Created with Sketch.</desc>
    <defs>
        <path d="M17,8 C18.657,8 20,6.657 20,5 C20,3.343 18.657,2 17,2 C15.343,2 14,3.343 14,5 C14,5.123 14.007,5.245 14.022,5.365 L7.166,8.924 C6.62,8.355 5.851,8 5,8 C3.343,8 2,9.343 2,11 C2,12.657 3.343,14 5,14 C5.846,14 6.61,13.65 7.156,13.086 L14.037,16.528 C14.013,16.682 14,16.839 14,17 C14,18.657 15.343,20 17,20 C18.657,20 20,18.657 20,17 C20,15.343 18.657,14 17,14 C16.228,14 15.525,14.291 14.993,14.77 L7.988,11.266 C7.996,11.179 8,11.09 8,11 C8,10.916 7.997,10.833 7.99,10.75 L14.913,7.155 C15.453,7.678 16.189,8 17,8 Z M17,6 C17.552,6 18,5.552 18,5 C18,4.448 17.552,4 17,4 C16.448,4 16,4.448 16,5 C16,5.552 16.448,6 17,6 Z M5,12 C5.552,12 6,11.552 6,11 C6,10.448 5.552,10 5,10 C4.448,10 4,10.448 4,11 C4,11.552 4.448,12 5,12 Z M18,17 C18,17.552 17.552,18 17,18 C16.448,18 16,17.552 16,17 C16,16.448 16.448,16 17,16 C17.552,16 18,16.448 18,17 Z" id="path-1"></path>
    </defs>
    <g id="-Icons-/-Basic-/-Share" stroke="none" stroke-width="1" fill="none" fill-rule="evenodd">
        <mask id="mask-2" fill="white">
            <use xlink:href="#path-1"></use>
        </mask>
        <use id="Icon" fill="#475F7B" xlink:href="#path-1"></use>
    </g>
</svg>