<?xml version="1.0" encoding="UTF-8"?>
<svg width="22px" height="22px" viewBox="0 0 22 22" version="1.1" xmlns="http://www.w3.org/2000/svg" xmlns:xlink="http://www.w3.org/1999/xlink">
    <!-- Generator: Sketch 52.5 (67469) - http://www.bohemiancoding.com/sketch -->
    <title> Icons / Basic / Smile</title>
    <desc>Created with Sketch.</desc>
    <defs>
        <path d="M11,21 C5.4771525,21 1,16.5228475 1,11 C1,5.4771525 5.4771525,1 11,1 C16.5228475,1 21,5.4771525 21,11 C21,16.5228475 16.5228475,21 11,21 Z M11,19 C15.418278,19 19,15.418278 19,11 C19,6.581722 15.418278,3 11,3 C6.581722,3 3,6.581722 3,11 C3,15.418278 6.581722,19 11,19 Z M7.5,10 C6.67157288,10 6,9.32842712 6,8.5 C6,7.67157288 6.67157288,7 7.5,7 C8.32842712,7 9,7.67157288 9,8.5 C9,9.32842712 8.32842712,10 7.5,10 Z M14.5,10 C13.6715729,10 13,9.32842712 13,8.5 C13,7.67157288 13.6715729,7 14.5,7 C15.3284271,7 16,7.67157288 16,8.5 C16,9.32842712 15.3284271,10 14.5,10 Z M6.00690895,13.1193738 C5.94102662,12.5710327 6.33213674,12.0731063 6.88047784,12.0072239 C7.42881894,11.9413416 7.92674541,12.3324517 7.99262773,12.8807928 C8.1478339,14.1725797 9.42107093,15.1277463 10.9970194,15.0522548 C12.324364,15.1248676 13.6649791,14.1230192 14.0336022,12.7421629 C14.1760477,12.208564 14.72409,11.8914717 15.2576888,12.0339172 C15.7912876,12.1763627 16.10838,12.724405 15.9659345,13.2580038 C15.3647016,15.5102133 13.2763676,17.1504404 10.9970194,17.0518059 C8.42959507,17.1516844 6.2898402,15.4742214 6.00690895,13.1193738 Z" id="path-1"></path>
    </defs>
    <g id="-Icons-/-Basic-/-Smile" stroke="none" stroke-width="1" fill="none" fill-rule="evenodd">
        <mask id="mask-2" fill="white">
            <use xlink:href="#path-1"></use>
        </mask>
        <use id="Combined-Shape" fill="#475F7B" xlink:href="#path-1"></use>
    </g>
</svg>