<?xml version="1.0" encoding="UTF-8"?>
<svg width="22px" height="22px" viewBox="0 0 22 22" version="1.1" xmlns="http://www.w3.org/2000/svg" xmlns:xlink="http://www.w3.org/1999/xlink">
    <!-- Generator: Sketch 52.5 (67469) - http://www.bohemiancoding.com/sketch -->
    <title> Icons / Basic / Star</title>
    <desc>Created with Sketch.</desc>
    <defs>
        <path d="M7.69142734,19.0831981 C7.24755279,19.3518654 6.71696127,19.435787 6.2125067,19.3171134 C5.1427734,19.0654573 4.47844843,17.9893759 4.72869535,16.9136185 L5.60477983,13.1475207 L2.68891066,10.6143138 C2.2956863,10.272694 2.05100247,9.78989809 2.00719479,9.26919173 C1.91457738,8.1683239 2.72692834,7.20039015 3.82163144,7.10725118 L7.66396369,6.78033984 L9.16930827,3.21847641 C9.37072195,2.74190245 9.7480587,2.36244075 10.2219639,2.15989283 C11.2330493,1.72775311 12.4010527,2.20169713 12.8307725,3.21847641 L14.3361171,6.78033984 L18.1784493,7.10725118 C18.6962398,7.15130556 19.1763321,7.39736732 19.5160389,7.79280608 C20.2342407,8.62883545 20.1425178,9.89206748 19.3111701,10.6143138 L16.395301,13.1475207 L17.2713854,16.9136185 C17.3893945,17.4209139 17.3059428,17.9544934 17.03878,18.4008676 C16.4722416,19.3474371 15.2499223,19.6529269 14.3086534,19.0831981 L11.0000404,17.0805693 L7.69142734,19.0831981 Z M15.0657437,16.2141206 L14.1842715,12.4248623 L17.1181979,9.8759679 C17.326659,9.69486408 17.3488364,9.37905934 17.1677326,9.17059827 C17.0824403,9.07242178 16.9622514,9.01134083 16.832668,9.00031568 L12.9741777,8.67202958 L11.4605981,5.09068089 C11.3530988,4.83632189 11.0597546,4.7172686 10.8053956,4.82476793 C10.6855322,4.87542561 10.5901403,4.97081749 10.5394827,5.09068089 L9.02590307,8.67202958 L5.16741273,9.00031568 C4.89226444,9.02372571 4.68819026,9.26575504 4.71160029,9.54090334 C4.72262543,9.67048673 4.78370638,9.79067554 4.88188287,9.8759679 L7.81580925,12.4248623 L6.93433708,16.2141206 C6.87177032,16.4830816 7.03908589,16.751838 7.30804688,16.8144047 C7.43509024,16.843958 7.56865297,16.8226961 7.68023983,16.7551551 L11.0000404,14.7457547 L14.3198409,16.7551551 C14.5560793,16.8981448 14.8635044,16.8225519 15.0064941,16.5863136 C15.0740351,16.4747267 15.095297,16.341164 15.0657437,16.2141206 Z" id="path-1"></path>
    </defs>
    <g id="-Icons-/-Basic-/-Star" stroke="none" stroke-width="1" fill="none" fill-rule="evenodd">
        <mask id="mask-2" fill="white">
            <use xlink:href="#path-1"></use>
        </mask>
        <use id="Shape" fill="#475F7B" xlink:href="#path-1"></use>
    </g>
</svg>