<?xml version="1.0" encoding="UTF-8"?>
<svg width="22px" height="22px" viewBox="0 0 22 22" version="1.1" xmlns="http://www.w3.org/2000/svg" xmlns:xlink="http://www.w3.org/1999/xlink">
    <!-- Generator: Sketch 52.5 (67469) - http://www.bohemiancoding.com/sketch -->
    <title> Icons / Basic / Star Filled</title>
    <desc>Created with Sketch.</desc>
    <defs>
        <path d="M7.69142734,19.0831981 C7.24755279,19.3518654 6.71696127,19.435787 6.2125067,19.3171134 C5.1427734,19.0654573 4.47844843,17.9893759 4.72869535,16.9136185 L5.60477983,13.1475207 L2.68891066,10.6143138 C2.2956863,10.272694 2.05100247,9.78989809 2.00719479,9.26919173 C1.91457738,8.1683239 2.72692834,7.20039015 3.82163144,7.10725118 L7.66396369,6.78033984 L9.16930827,3.21847641 C9.37072195,2.74190245 9.7480587,2.36244075 10.2219639,2.15989283 C11.2330493,1.72775311 12.4010527,2.20169713 12.8307725,3.21847641 L14.3361171,6.78033984 L18.1784493,7.10725118 C18.6962398,7.15130556 19.1763321,7.39736732 19.5160389,7.79280608 C20.2342407,8.62883545 20.1425178,9.89206748 19.3111701,10.6143138 L16.395301,13.1475207 L17.2713854,16.9136185 C17.3893945,17.4209139 17.3059428,17.9544934 17.03878,18.4008676 C16.4722416,19.3474371 15.2499223,19.6529269 14.3086534,19.0831981 L11.0000404,17.0805693 L7.69142734,19.0831981 Z" id="path-1"></path>
    </defs>
    <g id="-Icons-/-Basic-/-Star-Filled" stroke="none" stroke-width="1" fill="none" fill-rule="evenodd">
        <mask id="mask-2" fill="white">
            <use xlink:href="#path-1"></use>
        </mask>
        <use id="Shape" fill="#475F7B" xlink:href="#path-1"></use>
    </g>
</svg>