<?xml version="1.0" encoding="UTF-8"?>
<svg width="22px" height="22px" viewBox="0 0 22 22" version="1.1" xmlns="http://www.w3.org/2000/svg" xmlns:xlink="http://www.w3.org/1999/xlink">
    <!-- Generator: Sketch 52.5 (67469) - http://www.bohemiancoding.com/sketch -->
    <title> Icons / Basic / Tag</title>
    <desc>Created with Sketch.</desc>
    <g id="-Icons-/-Basic-/-Tag" stroke="none" stroke-width="1" fill="none" fill-rule="evenodd">
        <path d="M11.4559271,6 L5.20955383,12.2463733 L9.75374111,16.7903318 L16,10.5440729 L16,6 L11.4559271,6 Z M10.1067136,17.1432864 C10.104207,17.140702 10.1016456,17.138141 10.0990313,17.1356046 L10.1067136,17.1432864 Z M4.83720992,11.8740481 L4.84754246,11.8843802 C4.84414921,11.8808932 4.84070484,11.8774486 4.83720992,11.8740481 Z M3.4425,11.185 L10.1925,4.435 C10.4625,4.165 10.8375,4 11.25,4 L16.5,4 C17.325,4 18,4.675 18,5.5 L18,10.75 C18,11.1625 17.835,11.5375 17.5575,11.815 L10.8075,18.565 C10.5375,18.835 10.1625,19 9.75,19 C9.3375,19 8.9625,18.835 8.6925,18.5575 L3.4425,13.3075 C3.165,13.0375 3,12.6625 3,12.25 C3,11.8375 3.1725,11.455 3.4425,11.185 Z M13.5,10 C14.33,10 15,9.33 15,8.5 C15,7.67 14.33,7 13.5,7 C12.67,7 12,7.67 12,8.5 C12,9.33 12.67,10 13.5,10 Z" id="Combined-Shape" fill="#475F7B"></path>
    </g>
</svg>