<?xml version="1.0" encoding="UTF-8"?>
<svg width="22px" height="22px" viewBox="0 0 22 22" version="1.1" xmlns="http://www.w3.org/2000/svg" xmlns:xlink="http://www.w3.org/1999/xlink">
    <!-- Generator: Sketch 52.5 (67469) - http://www.bohemiancoding.com/sketch -->
    <title> Icons / Basic / Time</title>
    <desc>Created with Sketch.</desc>
    <g id="-Icons-/-Basic-/-Time" stroke="none" stroke-width="1" fill="none" fill-rule="evenodd">
        <path d="M10.991,2 C6.023,2 2,6.032 2,11 C2,15.968 6.023,20 10.991,20 C15.968,20 20,15.968 20,11 C20,6.032 15.968,2 10.991,2 L10.991,2 Z M11,18.2 C7.022,18.2 3.8,14.978 3.8,11 C3.8,7.022 7.022,3.8 11,3.8 C14.978,3.8 18.2,7.022 18.2,11 C18.2,14.978 14.978,18.2 11,18.2 Z M12.3180016,11.389624 C12.1151726,11.2004828 12,10.935604 12,10.6582703 L12,7 C12,6.44771525 11.5522847,6 11,6 C10.4477153,6 10,6.44771525 10,7 L10,11.5617009 C10,11.8410721 10.1168654,12.1077059 10.322297,12.2970366 L12.6930354,14.4819655 C13.0974691,14.8547013 13.7269938,14.8308717 14.102092,14.4286281 L14.106075,14.4243569 C14.4827323,14.0204414 14.4606352,13.3876621 14.0567197,13.0110048 L12.3180016,11.389624 Z" id="Shape" fill="#475F7B"></path>
    </g>
</svg>