<?xml version="1.0" encoding="UTF-8"?>
<svg width="22px" height="22px" viewBox="0 0 22 22" version="1.1" xmlns="http://www.w3.org/2000/svg" xmlns:xlink="http://www.w3.org/1999/xlink">
    <!-- Generator: Sketch 52.5 (67469) - http://www.bohemiancoding.com/sketch -->
    <title> Icons / Basic / Transport</title>
    <desc>Created with Sketch.</desc>
    <g id="-Icons-/-Basic-/-Transport" stroke="none" stroke-width="1" fill="none" fill-rule="evenodd">
        <path d="M5,6 L7.66675,6 L7.66675,9 L5.23523,9 L5,9 L5,6 Z M9.66675,6 L12.6812,6 L13.9669,9 L9.66675,9 L9.66675,6 Z M3,5 L3,9.99902 C2.524414,10.52991 2.235229,11.23114 2.235229,12 L2.235229,13.97882 C2.083313,14.3613 2,14.777 2,15.2118 C2,17.0972 3.56702,18.6255 5.5,18.6255 C7.15485,18.6255 8.54144,17.5054 8.90625,16 L13.9957,16 C14.3605,17.5054 15.7471,18.6255 17.4019,18.6255 C19.3349,18.6255 20.9019,17.0972 20.9019,15.2118 C20.9019,14.4627 20.6546,13.77008 20.2352,13.20715 L20.2352,12 C20.2352,10.34314 18.8921,9 17.2352,9 L16.1428,9 L14.2598,4.606079 C14.1022,4.238403 13.7407,4 13.3406,4 L4,4 C3.44769,4 3,4.447693 3,5 Z M4.23523,12 C4.23523,11.44769 4.68298,11 5.23523,11 L15.4835,11 L17.2352,11 C17.7517,11 18.1768,11.39148 18.2297,11.89398 C17.9643,11.83124 17.6871,11.79797 17.4019,11.79797 C15.9064,11.79797 14.6301,12.71277 14.1288,14 L8.77307,14 C8.27185,12.71277 6.99548,11.79797 5.5,11.79797 C5.05402,11.79797 4.6275,11.87933 4.23523,12.02765 L4.23523,12 Z M5.5,16.6255 C4.62427,16.6255 4,15.9459 4,15.2118 C4,14.4777 4.62427,13.79797 5.5,13.79797 C6.37573,13.79797 7,14.4777 7,15.2118 C7,15.9459 6.37573,16.6255 5.5,16.6255 Z M18.9019,15.2118 C18.9019,15.9459 18.2776,16.6255 17.4019,16.6255 C16.5262,16.6255 15.9019,15.9459 15.9019,15.2118 C15.9019,14.4777 16.5262,13.79797 17.4019,13.79797 C18.2776,13.79797 18.9019,14.4777 18.9019,15.2118 Z" id="Icon" fill="#475F7B"></path>
    </g>
</svg>