<?xml version="1.0" encoding="UTF-8"?>
<svg width="22px" height="22px" viewBox="0 0 22 22" version="1.1" xmlns="http://www.w3.org/2000/svg" xmlns:xlink="http://www.w3.org/1999/xlink">
    <!-- Generator: Sketch 52.5 (67469) - http://www.bohemiancoding.com/sketch -->
    <title> Icons / Basic / Trash</title>
    <desc>Created with Sketch.</desc>
    <g id="-Icons-/-Basic-/-Trash" stroke="none" stroke-width="1" fill="none" fill-rule="evenodd">
        <path d="M8,5 L8,4 C8,2.895 8.895,2 10,2 L12,2 C13.105,2 14,2.895 14,4 L14,5 L18,5 C18.552,5 19,5.448 19,6 C19,6.552 18.552,7 18,7 L18,17 C18,18.657 16.657,20 15,20 L7,20 C5.343,20 4,18.657 4,17 L4,7 C3.448,7 3,6.552 3,6 C3,5.448 3.448,5 4,5 L8,5 Z M10,5 L12,5 L12,4 L10,4 L10,5 Z M6,7 L6,17 C6,17.552 6.448,18 7,18 L15,18 C15.552,18 16,17.552 16,17 L16,7 L6,7 Z" id="Icon" fill="#475F7B"></path>
    </g>
</svg>