<?xml version="1.0" encoding="UTF-8"?>
<svg width="22px" height="22px" viewBox="0 0 22 22" version="1.1" xmlns="http://www.w3.org/2000/svg" xmlns:xlink="http://www.w3.org/1999/xlink">
    <!-- Generator: Sketch 52.5 (67469) - http://www.bohemiancoding.com/sketch -->
    <title> Icons / Basic / Undo</title>
    <desc>Created with Sketch.</desc>
    <defs>
        <path d="M3.50025,6.59998873 C2.83325,6.98398873 2.83325,7.94698873 3.50025,8.33198873 L8.50025,11.7959887 C9.16725,12.1809887 10.00025,11.6989887 10.00025,10.9299887 L10.00025,8.46598873 L13.00025,8.46598873 C15.20925,8.46598873 17.00025,10.2559887 17.00025,12.4659887 C17.00025,14.6749887 15.20925,16.4659887 13.00025,16.4659887 L6.00025,16.4659887 C5.44825,16.4659887 5.00025,16.9129887 5.00025,17.4659887 C5.00025,18.0179887 5.44825,18.4659887 6.00025,18.4659887 L13.00025,18.4659887 C16.31425,18.4659887 19.00025,15.7789887 19.00025,12.4659887 C19.00025,9.15198873 16.31425,6.46598873 13.00025,6.46598873 L10.00025,6.46598873 L10.00025,4.00098873 C10.00025,3.23198873 9.16725,2.75098873 8.50025,3.13498873 L3.50025,6.59998873 Z" id="path-1"></path>
    </defs>
    <g id="-Icons-/-Basic-/-Undo" stroke="none" stroke-width="1" fill="none" fill-rule="evenodd">
        <mask id="mask-2" fill="white">
            <use xlink:href="#path-1"></use>
        </mask>
        <use id="Mask" fill="#475F7B" xlink:href="#path-1"></use>
    </g>
</svg>