<?xml version="1.0" encoding="UTF-8"?>
<svg width="22px" height="22px" viewBox="0 0 22 22" version="1.1" xmlns="http://www.w3.org/2000/svg" xmlns:xlink="http://www.w3.org/1999/xlink">
    <!-- Generator: Sketch 52.5 (67469) - http://www.bohemiancoding.com/sketch -->
    <title> Icons / Basic / Upload</title>
    <desc>Created with Sketch.</desc>
    <g id="-Icons-/-Basic-/-Upload" stroke="none" stroke-width="1" fill="none" fill-rule="evenodd">
        <path d="M5.34314575,16.6568542 C2.21895142,13.5326599 2.21895142,8.46734008 5.34314575,5.34314575 C8.46734008,2.21895142 13.5326599,2.21895142 16.6568542,5.34314575 C19.7810486,8.46734008 19.7810486,13.5326599 16.6568542,16.6568542 C13.5326599,19.7810486 8.46734008,19.7810486 5.34314575,16.6568542 Z M15.1140758,15.1140758 C17.3862172,12.8419345 17.3862172,9.15806552 15.1140758,6.88592418 C12.8419345,4.61378285 9.15806552,4.61378285 6.88592418,6.88592418 C4.61378285,9.15806552 4.61378285,12.8419345 6.88592418,15.1140758 C9.15806552,17.3862172 12.8419345,17.3862172 15.1140758,15.1140758 Z M10,10 L10,8 C10,7.44771525 10.4477153,7 11,7 C11.5522847,7 12,7.44771525 12,8 L12,10 L14,10 C14.5522847,10 15,10.4477153 15,11 C15,11.5522847 14.5522847,12 14,12 L12,12 L12,14 C12,14.5522847 11.5522847,15 11,15 C10.4477153,15 10,14.5522847 10,14 L10,12 L8,12 C7.44771525,12 7,11.5522847 7,11 C7,10.4477153 7.44771525,10 8,10 L10,10 Z" id="Combined-Shape" fill="#475F7B"></path>
    </g>
</svg>