<?xml version="1.0" encoding="UTF-8"?>
<svg width="22px" height="22px" viewBox="0 0 22 22" version="1.1" xmlns="http://www.w3.org/2000/svg" xmlns:xlink="http://www.w3.org/1999/xlink">
    <!-- Generator: Sketch 52.5 (67469) - http://www.bohemiancoding.com/sketch -->
    <title> Icons / Basic / Video</title>
    <desc>Created with Sketch.</desc>
    <defs>
        <path d="M12.9809436,7 L5.01905635,7 C4.45653725,7 4,7.448 4,8 L4,14 C4,14.552 4.45653725,15 5.01905635,15 L12.9809436,15 C13.5434628,15 14,14.552 14,14 L14,8 C14,7.448 13.5434628,7 12.9809436,7 Z M5,5 L13,5 C14.656,5 16,6.343 16,8 L16,14 C16,15.657 14.656,17 13,17 L5,17 C3.343,17 2,15.657 2,14 L2,8 C2,6.343 3.343,5 5,5 Z M18.531,7.35848909 C19.505,6.53248909 21,7.22548909 21,8.50348909 L21,12.855 C21,14.133 19.505,14.826 18.531,14 L17.531,13.153 C17.194,12.868 17,12.45 17,12.009 L17,9.34948909 C17,8.90848909 17.194,8.49048909 17.531,8.20548909 L18.531,7.35848909 Z" id="path-1"></path>
    </defs>
    <g id="-Icons-/-Basic-/-Video" stroke="none" stroke-width="1" fill="none" fill-rule="evenodd">
        <mask id="mask-2" fill="white">
            <use xlink:href="#path-1"></use>
        </mask>
        <use id="Icon" fill="#475F7B" xlink:href="#path-1"></use>
    </g>
</svg>