<?xml version="1.0" encoding="UTF-8"?>
<svg width="22px" height="22px" viewBox="0 0 22 22" version="1.1" xmlns="http://www.w3.org/2000/svg" xmlns:xlink="http://www.w3.org/1999/xlink">
    <!-- Generator: Sketch 52.5 (67469) - http://www.bohemiancoding.com/sketch -->
    <title> Icons / Basic / Visibility</title>
    <desc>Created with Sketch.</desc>
    <g id="-Icons-/-Basic-/-Visibility" stroke="none" stroke-width="1" fill="none" fill-rule="evenodd">
        <path d="M11.094,5 C5.969,5 3.038,8.542 2.187,10.38 L2,10.784 L2.175,11.193 C3.005,13.136 5.924,17 11.094,17 C16.265,17 19.184,13.136 20.014,11.193 L20.189,10.784 L20.002,10.38 C19.151,8.542 16.22,5 11.094,5 Z M6.918,13.749 C5.585,12.87 4.684,11.699 4.214,10.82 C4.698,9.997 5.638,8.881 7.044,8.067 C6.447,8.891 6.094,9.904 6.094,11 C6.094,12.016 6.397,12.961 6.918,13.749 Z M15.271,13.749 C16.604,12.87 17.505,11.699 17.975,10.82 C17.491,9.997 16.551,8.881 15.144,8.067 C15.742,8.891 16.094,9.904 16.094,11 C16.094,12.016 15.792,12.961 15.271,13.749 Z M14.094,11 C14.094,12.657 12.751,14 11.094,14 C9.438,14 8.094,12.657 8.094,11 C8.094,9.343 9.438,8 11.094,8 C12.751,8 14.094,9.343 14.094,11 Z" id="Icon" fill="#475F7B"></path>
    </g>
</svg>