<?xml version="1.0" encoding="UTF-8"?>
<svg width="22px" height="22px" viewBox="0 0 22 22" version="1.1" xmlns="http://www.w3.org/2000/svg" xmlns:xlink="http://www.w3.org/1999/xlink">
    <!-- Generator: Sketch 52.5 (67469) - http://www.bohemiancoding.com/sketch -->
    <title> Icons / Basic / Wallet</title>
    <desc>Created with Sketch.</desc>
    <g id="-Icons-/-Basic-/-Wallet" stroke="none" stroke-width="1" fill="none" fill-rule="evenodd">
        <path d="M18.6373,4.64763994 L18.8384,5.77050994 C19.5242,6.08758994 20,6.78167994 20,7.58678994 L20,17.5867999 C20,18.6913999 19.1046,19.5867999 18,19.5867999 L4,19.5867999 C2.895447,19.5867999 2,18.6913999 2,17.5867999 L2,7.58678994 C2,6.94768994 2.299805,6.37859994 2.766418,6.01244994 C3.05933,5.61675994 3.49811,5.32775994 4.02094,5.23412994 L16.316,3.03167684 C17.4033,2.83691394 18.4425,3.56042394 18.6373,4.64763994 Z M18,8.08678994 C18,7.81066994 17.7761,7.58678994 17.5,7.58678994 L4.5,7.58678994 C4.22388,7.58678994 4,7.81066994 4,8.08678994 L4,17.0867999 C4,17.3629999 4.22388,17.5867999 4.5,17.5867999 L17.5,17.5867999 C17.7761,17.5867999 18,17.3629999 18,17.0867999 L18,8.08678994 Z M14,14.5867999 C12.8954,14.5867999 12,13.6913999 12,12.5867899 C12,11.4822399 12.8954,10.5867899 14,10.5867899 C15.1046,10.5867899 16,11.4822399 16,12.5867899 C16,13.6913999 15.1046,14.5867999 14,14.5867999 Z" id="Combined-Shape" fill="#475F7B"></path>
    </g>
</svg>