<?xml version="1.0" encoding="UTF-8"?>
<svg width="22px" height="22px" viewBox="0 0 22 22" version="1.1" xmlns="http://www.w3.org/2000/svg" xmlns:xlink="http://www.w3.org/1999/xlink">
    <!-- Generator: Sketch 52.5 (67469) - http://www.bohemiancoding.com/sketch -->
    <title> Icons / Basic / Zoom</title>
    <desc>Created with Sketch.</desc>
    <g id="-Icons-/-Basic-/-Zoom" stroke="none" stroke-width="1" fill="none" fill-rule="evenodd">
        <path d="M12.89125,11.47725 C14.56125,9.13425 14.34525,5.86025 12.24325,3.75725 C9.90025,1.41425 6.10125,1.41425 3.75725,3.75725 C1.41425,6.10125 1.41425,9.89925 3.75725,12.24325 C5.86025,14.34525 9.13425,14.56125 11.47725,12.89125 L12.43225,13.84625 C12.25425,14.51325 12.42625,15.25525 12.95025,15.77825 L16.39125,19.21925 C17.17225,20.00025 18.43825,20.00025 19.21925,19.21925 C20.00025,18.43825 20.00025,17.17225 19.21925,16.39125 L15.77825,12.95025 C15.25525,12.42625 14.51325,12.25425 13.84625,12.43225 L12.89125,11.47725 Z M10.82825,5.17225 C12.39025,6.73425 12.39125,9.26625 10.82825,10.82825 C9.26625,12.39125 6.73425,12.39125 5.17225,10.82825 C3.61025,9.26625 3.60925,6.73425 5.17225,5.17225 C6.73425,3.60925 9.26625,3.60925 10.82825,5.17225 Z" id="Icon" fill="#475F7B"></path>
    </g>
</svg>