<?xml version="1.0" encoding="UTF-8"?>
<svg width="22px" height="22px" viewBox="0 0 22 22" version="1.1" xmlns="http://www.w3.org/2000/svg" xmlns:xlink="http://www.w3.org/1999/xlink">
    <!-- Generator: Sketch 52.5 (67469) - http://www.bohemiancoding.com/sketch -->
    <title> Icons / Media / Arrows</title>
    <desc>Created with Sketch.</desc>
    <defs>
        <path d="M4.91006285,3.26650904 C4.5583928,2.91116365 3.98831564,2.91116365 3.63664289,3.26650904 C3.28502418,3.62179893 3.28502418,4.19787726 3.63664289,4.55317352 L9.830364,10.8115591 L3.26375523,17.4467673 C2.91208159,17.8021455 2.91208159,18.3781565 3.26375523,18.7335346 C3.61537395,19.0888218 4.18549974,19.0888218 4.53712476,18.7335346 L11.1037812,12.0982627 L15.3150246,16.3535201 L13.829053,17.8156109 C13.6704881,17.9716461 13.7595402,18.2388621 13.9812249,18.2722527 L18.6846856,18.9801885 C18.8672918,19.0077563 19.0245061,18.8529038 18.9965929,18.6733041 L18.2771532,14.0451089 C18.2432072,13.8269326 17.971639,13.7394073 17.8130741,13.8954425 L16.6053338,15.0838575 L12.3771175,10.8115591 L16.4147138,6.73188898 L17.8131641,8.10795572 C17.971819,8.26400002 18.2433873,8.17637466 18.2772432,7.95824381 L18.996773,3.33009225 C19.0246862,3.15044796 18.8673819,2.99568244 18.6848657,3.02317045 L13.9813149,3.73114003 C13.7596302,3.76451427 13.6705782,4.03173389 13.829143,4.18777819 L15.1244046,5.46227192 L11.1037812,9.52490095 L4.91006285,3.26650904 Z" id="path-1"></path>
    </defs>
    <g id="-Icons-/-Media-/-Arrows" stroke="none" stroke-width="1" fill="none" fill-rule="evenodd">
        <mask id="mask-2" fill="white">
            <use xlink:href="#path-1"></use>
        </mask>
        <use id="Icon" fill="#475F7B" xlink:href="#path-1"></use>
    </g>
</svg>