<?xml version="1.0" encoding="UTF-8"?>
<svg width="22px" height="22px" viewBox="0 0 22 22" version="1.1" xmlns="http://www.w3.org/2000/svg" xmlns:xlink="http://www.w3.org/1999/xlink">
    <!-- Generator: Sketch 52.5 (67469) - http://www.bohemiancoding.com/sketch -->
    <title> Icons / Media / Cut</title>
    <desc>Created with Sketch.</desc>
    <defs>
        <path d="M12,17.5455 C12,18.9011 10.881,20 9.5,20 C8.119,20 7,18.9011 7,17.5455 L7,16.7273 C7,15.6586 7.696,14.7493 8.667,14.4124 L8.667,12.6364 L7.588,12.6364 C7.251,13.5897 6.341,14.2728 5.273,14.2728 L4.455,14.2728 C3.099,14.2728 2,13.1738 2,11.8182 C2,10.4626 3.099,9.3637 4.455,9.3637 L5.273,9.3637 C5.93,9.3637 6.575,9.5682 7.22,9.7727 C7.7,9.9252 8.181,10.0775 8.667,10.1453 L8.667,5.8097 C8.667,4.4148 9.391,3.116 10.587,2.3641 L11.167,2 L11.167,10.1818 L20,10.1818 L19.636,10.7507 C18.884,11.9255 17.585,12.6364 16.19,12.6364 L11.167,12.6364 L11.167,12.8252 C11.167,13.4839 11.375,14.1301 11.583,14.7762 C11.792,15.4224 12,16.0686 12,16.7273 L12,17.5455 Z M10.333,16.7273 L10.333,17.5455 C10.333,17.9973 9.96,18.3636 9.5,18.3636 C9.04,18.3636 8.667,17.9973 8.667,17.5455 L8.667,16.7273 C8.667,16.2754 9.04,15.9091 9.5,15.9091 C9.96,15.9091 10.333,16.2754 10.333,16.7273 Z M5.273,11 L4.455,11 C4.003,11 3.636,11.3663 3.636,11.8182 C3.636,12.27 4.003,12.6364 4.455,12.6364 L5.273,12.6364 C5.725,12.6364 6.091,12.27 6.091,11.8182 C6.091,11.3663 5.725,11 5.273,11 Z" id="path-1"></path>
    </defs>
    <g id="-Icons-/-Media-/-Cut" stroke="none" stroke-width="1" fill="none" fill-rule="evenodd">
        <mask id="mask-2" fill="white">
            <use xlink:href="#path-1"></use>
        </mask>
        <use id="Icon" fill="#475F7B" xlink:href="#path-1"></use>
    </g>
</svg>