<?xml version="1.0" encoding="UTF-8"?>
<svg width="22px" height="22px" viewBox="0 0 22 22" version="1.1" xmlns="http://www.w3.org/2000/svg" xmlns:xlink="http://www.w3.org/1999/xlink">
    <!-- Generator: Sketch 52.5 (67469) - http://www.bohemiancoding.com/sketch -->
    <title> Icons / Media / Image</title>
    <desc>Created with Sketch.</desc>
    <defs>
        <path d="M7.21372326,3 L18.0839712,3 C18.5898023,3 19,3.41009968 19,3.91602879 L19,14.786176 C19,15.2920987 18.5898023,15.7022048 18.0839712,15.7022048 L7.21372326,15.7022048 C6.70780972,15.7022048 6.29769447,15.2920987 6.29769447,14.786176 L6.29769447,3.91602879 C6.29769447,3.41009968 6.70780972,3 7.21372326,3 Z M13.8327732,8.04129114 C13.6878575,7.82257095 13.3666978,7.82257095 13.221782,8.04129114 L11.1315417,11.1969004 L10.4974666,10.2396686 C10.3525692,10.0209484 10.0314186,10.0209484 9.88653037,10.2396686 L8.00761792,13.076225 L9.88664029,13.0763166 L17.1679424,13.0763166 L13.8327732,8.04129114 Z M4.83205757,6.35879359 C4.83205757,5.85286173 4.42194232,5.4427648 3.91602879,5.4427648 C3.41011342,5.4427648 3,5.85286173 3,6.35879359 L3,16.2519136 C3,17.7695901 4.2303549,19 5.74808636,19 L15.6411972,19 C16.1471199,19 16.557226,18.5898939 16.557226,18.0839712 C16.557226,17.5780485 16.1471199,17.1679424 15.6411972,17.1679424 L5.74808636,17.1679424 C5.24218198,17.1679424 4.83205757,16.7578363 4.83205757,16.2519136 L4.83205757,6.35879359 Z" id="path-1"></path>
    </defs>
    <g id="-Icons-/-Media-/-Image" stroke="none" stroke-width="1" fill="none" fill-rule="evenodd">
        <mask id="mask-2" fill="white">
            <use xlink:href="#path-1"></use>
        </mask>
        <use id="Icon" fill="#475F7B" xlink:href="#path-1"></use>
    </g>
</svg>