<?xml version="1.0" encoding="UTF-8"?>
<svg width="22px" height="22px" viewBox="0 0 22 22" version="1.1" xmlns="http://www.w3.org/2000/svg" xmlns:xlink="http://www.w3.org/1999/xlink">
    <!-- Generator: Sketch 52.5 (67469) - http://www.bohemiancoding.com/sketch -->
    <title> Icons / Media / Loop</title>
    <desc>Created with Sketch.</desc>
    <defs>
        <path d="M18.9936,6.11424005 L16.5874,8.54630005 C16.3361,8.80033005 15.9031,8.62235005 15.9031,8.26499005 L15.9031,6.83292005 L5,6.83292005 L5,10.2563301 C5,10.8086301 4.55228,11.2563301 4,11.2563301 C3.447723,11.2563301 3,10.8086301 3,10.2563301 L3,6.83292005 C3,5.72837005 3.895416,4.83292005 5,4.83292005 L15.9031,4.83292005 L15.9031,3.40079605 C15.9031,3.04343495 16.3361,2.86539505 16.5874,3.11948505 L18.9936,5.55155005 C19.1478,5.70744005 19.1478,5.95835005 18.9936,6.11424005 Z M19.2032,15.1712001 C19.2032,16.2757001 18.3078,17.1712001 17.2032,17.1712001 L6.30017,17.1712001 L6.30017,18.6033001 C6.30017,18.9607001 5.86716,19.1387001 5.61581,18.8846001 L3.209686,16.4526001 C3.055481,16.2967001 3.055481,16.0458001 3.209686,15.8899001 L5.61581,13.4578001 C5.86716,13.2037701 6.30017,13.3817501 6.30017,13.7391101 L6.30017,15.1712001 L17.2032,15.1712001 L17.2032,11.7477801 C17.2032,11.1954701 17.651,10.7477801 18.2032,10.7477801 C18.7555,10.7477801 19.2032,11.1954701 19.2032,11.7477801 L19.2032,15.1712001 Z" id="path-1"></path>
    </defs>
    <g id="-Icons-/-Media-/-Loop" stroke="none" stroke-width="1" fill="none" fill-rule="evenodd">
        <mask id="mask-2" fill="white">
            <use xlink:href="#path-1"></use>
        </mask>
        <use id="Icon" fill="#475F7B" xlink:href="#path-1"></use>
    </g>
</svg>