<?xml version="1.0" encoding="UTF-8"?>
<svg width="22px" height="22px" viewBox="0 0 22 22" version="1.1" xmlns="http://www.w3.org/2000/svg" xmlns:xlink="http://www.w3.org/1999/xlink">
    <!-- Generator: Sketch 52.5 (67469) - http://www.bohemiancoding.com/sketch -->
    <title> Icons / Media / Merge</title>
    <desc>Created with Sketch.</desc>
    <defs>
        <path d="M7.44444444,3.44444444 L7.44444444,4.33333333 C7.44444444,4.57879111 7.24545778,4.77777778 7,4.77777778 L6.55555556,4.77777778 C5.57370667,4.77777778 4.77777778,5.57368 4.77777778,6.55555556 L4.77777778,7 C4.77777778,7.49091556 4.37980444,7.88888889 3.88888889,7.88888889 C3.39796889,7.88888889 3,7.49091556 3,7 L3,6.55555556 C3,4.59190222 4.59187556,3 6.55555556,3 L7,3 C7.24545778,3 7.44444444,3.19898489 7.44444444,3.44444444 Z M15,4.77777778 C14.7545778,4.77777778 14.5555556,4.57879111 14.5555556,4.33333333 L14.5555556,3.44444444 C14.5555556,3.19898489 14.7545778,3 15,3 L15.4444444,3 C17.4080889,3 19,4.59190222 19,6.55555556 L19,7.44444444 C19,7.68990222 18.8009778,7.88888889 18.5555556,7.88888889 L17.6666667,7.88888889 C17.4212444,7.88888889 17.2222222,7.68990222 17.2222222,7.44444444 L17.2222222,6.55555556 C17.2222222,5.57368 16.4263111,4.77777778 15.4444444,4.77777778 L15,4.77777778 Z M14.5555556,17.6666667 C14.5555556,17.4212444 14.7545778,17.2222222 15,17.2222222 L15.4444444,17.2222222 C16.4263111,17.2222222 17.2222222,16.4263111 17.2222222,15.4444444 L17.2222222,14.5555556 C17.2222222,14.3101333 17.4212444,14.1111111 17.6666667,14.1111111 L18.5555556,14.1111111 C18.8009778,14.1111111 19,14.3101333 19,14.5555556 L19,15.4444444 C19,17.4080889 17.4080889,19 15.4444444,19 L15,19 C14.7545778,19 14.5555556,18.8009778 14.5555556,18.5555556 L14.5555556,17.6666667 Z M4.33333333,14.1111111 C4.57879111,14.1111111 4.77777778,14.3101333 4.77777778,14.5555556 L4.77777778,15.4444444 C4.77777778,16.4263111 5.57370667,17.2222222 6.55555556,17.2222222 L7,17.2222222 C7.24545778,17.2222222 7.44444444,17.4212444 7.44444444,17.6666667 L7.44444444,18.5555556 C7.44444444,18.8009778 7.24545778,19 7,19 L6.55555556,19 C4.59187556,19 3,17.4080889 3,15.4444444 L3,14.5555556 C3,14.3101333 3.19898489,14.1111111 3.44444444,14.1111111 L4.33333333,14.1111111 Z" id="path-1"></path>
    </defs>
    <g id="-Icons-/-Media-/-Merge" stroke="none" stroke-width="1" fill="none" fill-rule="evenodd">
        <mask id="mask-2" fill="white">
            <use xlink:href="#path-1"></use>
        </mask>
        <use id="Icon" fill="#475F7B" xlink:href="#path-1"></use>
    </g>
</svg>