<?xml version="1.0" encoding="UTF-8"?>
<svg width="22px" height="22px" viewBox="0 0 22 22" version="1.1" xmlns="http://www.w3.org/2000/svg" xmlns:xlink="http://www.w3.org/1999/xlink">
    <!-- Generator: Sketch 52.5 (67469) - http://www.bohemiancoding.com/sketch -->
    <title> Icons / Media / Music Video</title>
    <desc>Created with Sketch.</desc>
    <defs>
        <path d="M20,2 L2,2 C0.9,2 0,2.9 0,4 L0,18 C0,19.1 0.9,20 2,20 L20,20 C21.1,20 22,19.1 22,18 L22,4 C22,2.9 21.1,2 20,2 Z M20,18 L2,18 L2,4 L20,4 L20,18 Z M15.5133571,6.16402143 L10.8571429,5 L10.8571429,11.7726286 C10.4791429,11.5538 10.0400714,11.4285714 9.57142857,11.4285714 C8.15135714,11.4285714 7,12.5798643 7,14 C7,15.4201357 8.15135714,16.5714286 9.57142857,16.5714286 C10.9915,16.5714286 12.1428571,15.4201357 12.1428571,14 L12.1428571,7.89285714 L15.2009286,8.65740714 C15.6072143,8.75891429 16,8.45195 16,8.03377143 L16,6.78765714 C16,6.49265 15.7994286,6.23550714 15.5133571,6.16402143 Z" id="path-1"></path>
    </defs>
    <g id="-Icons-/-Media-/-Music-Video" stroke="none" stroke-width="1" fill="none" fill-rule="evenodd">
        <mask id="mask-2" fill="white">
            <use xlink:href="#path-1"></use>
        </mask>
        <use id="Shape" fill="#475F7B" xlink:href="#path-1"></use>
    </g>
</svg>