<?xml version="1.0" encoding="UTF-8"?>
<svg width="22px" height="22px" viewBox="0 0 22 22" version="1.1" xmlns="http://www.w3.org/2000/svg" xmlns:xlink="http://www.w3.org/1999/xlink">
    <!-- Generator: Sketch 52.5 (67469) - http://www.bohemiancoding.com/sketch -->
    <title> Icons / Media / Video</title>
    <desc>Created with Sketch.</desc>
    <defs>
        <path d="M6.29770363,3.91602879 C6.29770363,3.41009968 6.70781888,3 7.21373242,3 L18.0839712,3 C18.5898939,3 19,3.41009968 19,3.91602879 L19,14.786176 C19,15.2920987 18.5898939,15.7022048 18.0839712,15.7022048 L7.21373242,15.7022048 C6.70781888,15.7022048 6.29770363,15.2920987 6.29770363,14.786176 L6.29770363,3.91602879 Z M14.6562831,9.07271207 L11.7796321,6.79835916 C11.4192664,6.51343757 10.8891422,6.770118 10.8891422,7.22953391 L10.8891422,11.7782031 C10.8891422,12.2376007 11.4192664,12.494272 11.7796321,12.2092954 L14.6562831,9.93501577 C14.9345726,9.71495818 14.9345726,9.29277883 14.6562831,9.07271207 Z M4.83205757,6.35879359 C4.83205757,5.85286173 4.42193316,5.4427648 3.91602879,5.4427648 C3.41012074,5.4427648 3,5.85286173 3,6.35879359 L3,16.2519136 C3,17.7695901 4.23036406,19 5.74808636,19 L15.6411972,19 C16.1471199,19 16.557226,18.5898939 16.557226,18.0839712 C16.557226,17.5780485 16.1471199,17.1679424 15.6411972,17.1679424 L5.74808636,17.1679424 C5.24218198,17.1679424 4.83205757,16.7578363 4.83205757,16.2519136 L4.83205757,6.35879359 Z" id="path-1"></path>
    </defs>
    <g id="-Icons-/-Media-/-Video" stroke="none" stroke-width="1" fill="none" fill-rule="evenodd">
        <mask id="mask-2" fill="white">
            <use xlink:href="#path-1"></use>
        </mask>
        <use id="Icon" fill="#475F7B" xlink:href="#path-1"></use>
    </g>
</svg>