<?xml version="1.0" encoding="UTF-8"?>
<svg width="22px" height="22px" viewBox="0 0 22 22" version="1.1" xmlns="http://www.w3.org/2000/svg" xmlns:xlink="http://www.w3.org/1999/xlink">
    <!-- Generator: Sketch 52.5 (67469) - http://www.bohemiancoding.com/sketch -->
    <title> Icons / Media / Volume</title>
    <desc>Created with Sketch.</desc>
    <defs>
        <path d="M9,7.97585995 L6.595,9.85685995 L5,9.85685995 L5,12.98986 L6.595,12.98986 L9,14.87186 L9,7.97585995 Z M8.576,5.76785995 C9.56,4.99785995 11,5.69885995 11,6.94985995 L11,15.89786 C11,17.14786 9.56,17.84986 8.576,17.07886 L5.905,14.98986 L5,14.98986 C3.895,14.98986 3,14.09486 3,12.98986 L3,9.85685995 C3,8.75185995 3.895,7.85685995 5,7.85685995 L5.905,7.85685995 L8.576,5.76785995 Z M13.536,5.00585995 C16.633,5.50185995 19,8.18585995 19,11.42386 C19,14.66086 16.633,17.34586 13.536,17.84186 C13.248,17.88786 13,17.65586 13,17.36486 L13,16.34386 C13,16.08886 13.193,15.87786 13.442,15.82486 C15.475,15.39186 17,13.58586 17,11.42386 C17,9.26185995 15.475,7.45585995 13.442,7.02285995 C13.193,6.96885995 13,6.75785995 13,6.50285995 L13,5.48185995 C13,5.19085995 13.248,4.95985995 13.536,5.00585995 Z M13,14.05186 L13,12.89686 C13,12.69786 13.124,12.52486 13.279,12.40086 C13.566,12.17186 13.75,11.81886 13.75,11.42386 C13.75,11.02786 13.566,10.67486 13.279,10.44586 C13.124,10.32186 13,10.14886 13,9.95085995 L13,8.79485995 C13,8.48885995 13.276,8.25185995 13.565,8.35185995 C14.837,8.79285995 15.75,10.00186 15.75,11.42386 C15.75,12.84586 14.837,14.05386 13.565,14.49486 C13.276,14.59586 13,14.35886 13,14.05186 Z" id="path-1"></path>
    </defs>
    <g id="-Icons-/-Media-/-Volume" stroke="none" stroke-width="1" fill="none" fill-rule="evenodd">
        <mask id="mask-2" fill="white">
            <use xlink:href="#path-1"></use>
        </mask>
        <use id="Icon" fill="#475F7B" xlink:href="#path-1"></use>
    </g>
</svg>