<?xml version="1.0" encoding="UTF-8"?>
<svg width="22px" height="22px" viewBox="0 0 22 22" version="1.1" xmlns="http://www.w3.org/2000/svg" xmlns:xlink="http://www.w3.org/1999/xlink">
    <!-- Generator: Sketch 52.5 (67469) - http://www.bohemiancoding.com/sketch -->
    <title> Icons / Arrows / Arrows</title>
    <desc>Created with Sketch.</desc>
    <defs>
        <path d="M9.39134704,11.3333333 C9.39134704,11.7015232 9.09287021,12 8.72468037,12 C8.35649054,12 8.05801371,11.7015232 8.05801371,11.3333333 L8.05801371,4.55333333 L6.13533543,6.47065597 C5.8752937,6.72997334 5.45436017,6.7296798 5.19468037,6.47 C4.93510654,6.21042617 4.93510654,5.78957383 5.19468037,5.53 L8.72468037,2 L12.2546804,5.53 C12.5142542,5.78957383 12.5142542,6.21042617 12.2546804,6.47 C11.9950006,6.7296798 11.574067,6.72997334 11.3140253,6.47065597 L9.39134704,4.55333333 L9.39134704,11.3333333 Z M12.0580137,10.6666667 C12.0580137,10.2984768 12.3564905,10 12.7246804,10 C13.0928702,10 13.391347,10.2984768 13.391347,10.6666667 L13.391347,17.4466667 L15.3140253,15.529344 C15.574067,15.2700267 15.9950006,15.2703202 16.2546804,15.53 C16.5142542,15.7895738 16.5142542,16.2104262 16.2546804,16.47 L12.7246804,20 L9.19468037,16.47 C8.93510654,16.2104262 8.93510654,15.7895738 9.19468037,15.53 C9.45436017,15.2703202 9.8752937,15.2700267 10.1353354,15.529344 L12.0580137,17.4466667 L12.0580137,10.6666667 Z" id="path-1"></path>
    </defs>
    <g id="-Icons-/-Arrows-/-Arrows" stroke="none" stroke-width="1" fill="none" fill-rule="evenodd">
        <mask id="mask-2" fill="white">
            <use xlink:href="#path-1"></use>
        </mask>
        <use id="Combined-Shape" fill="#475F7B" xlink:href="#path-1"></use>
    </g>
</svg>